<svg width="128" height="128" viewBox="0 0 128 128" fill="none" xmlns="http://www.w3.org/2000/svg">
<path d="M107.103 63.9848C107.103 87.8542 87.753 107.204 63.8836 107.204C40.0143 107.204 20.6643 87.8542 20.6643 63.9848C20.6643 40.1155 40.0143 20.7655 63.8836 20.7655C87.753 20.7655 107.103 40.1155 107.103 63.9848Z" fill="white"/>
<path d="M115.659 77.1974L114.454 76.8411L116.73 69.1394L117.936 69.4958L115.659 77.1974ZM117.07 70.2069L112.019 67.7798L113.131 67.289L110.52 76.121L109.284 75.7558L112.1 66.2305L117.475 68.8353L123.403 69.5713L120.61 79.0212L119.374 78.656L121.963 69.8993L122.629 70.9157L117.07 70.2069Z" fill="white"/>
<path d="M107.333 84.2254L107.635 83.7469L112.458 91.418L111.636 92.7205L106.502 84.2767L107.357 82.9211L117.197 83.9088L116.341 85.2645L107.333 84.2254Z" fill="white"/>
<path d="M99.5894 94.5825C100.341 93.8986 101.138 93.4356 101.98 93.1936C102.822 92.9664 103.642 92.9569 104.44 93.1653C105.238 93.3884 105.944 93.8371 106.557 94.5114C107.178 95.1934 107.566 95.9312 107.721 96.7247C107.876 97.5183 107.809 98.3087 107.52 99.096C107.23 99.8834 106.729 100.601 106.016 101.25C105.311 101.892 104.554 102.297 103.745 102.467C102.936 102.636 102.13 102.568 101.329 102.263C100.527 101.973 99.7874 101.456 99.1105 100.712L105.458 94.9378L106.23 95.7865L100.336 101.148L100.615 100.194C101.082 100.661 101.583 100.977 102.116 101.144C102.65 101.31 103.183 101.327 103.716 101.197C104.249 101.066 104.751 100.786 105.224 100.356C105.736 99.8906 106.086 99.3806 106.275 98.8258C106.472 98.2788 106.509 97.7206 106.388 97.1512C106.259 96.5888 105.965 96.0558 105.507 95.552C105.027 95.025 104.491 94.677 103.898 94.5081C103.306 94.3391 102.697 94.3474 102.073 94.533C101.448 94.7186 100.842 95.0793 100.253 95.6151C99.7179 96.1016 99.2758 96.6667 98.9264 97.3102C98.5693 97.9609 98.3264 98.6281 98.1977 99.3117L97.4362 98.4747C97.5431 97.7826 97.7874 97.0858 98.1692 96.3844C98.558 95.6908 99.0314 95.0901 99.5894 94.5825Z" fill="white"/>
<path d="M99.0727 107.879L97.8305 108.619L95.8542 106.284L92.8701 101.275L94.1123 100.535L97.2331 105.773L99.0727 107.879ZM93.3775 111.308L92.7099 110.187C92.9131 110.14 93.1398 110.059 93.3899 109.947C93.631 109.84 93.8551 109.725 94.0621 109.601C94.6022 109.28 95.0114 108.871 95.2896 108.376C95.5679 107.881 95.6847 107.33 95.6399 106.722C95.6004 106.124 95.393 105.51 95.0177 104.88L95.6583 105.157C95.9566 105.698 96.1634 106.24 96.2785 106.781C96.3935 107.322 96.4081 107.838 96.3221 108.328C96.2325 108.833 96.0432 109.293 95.7544 109.709C95.462 110.14 95.0637 110.505 94.5596 110.805C94.3706 110.918 94.169 111.02 93.9549 111.111C93.7318 111.207 93.5393 111.273 93.3775 111.308Z" fill="white"/>
<path d="M83.8444 104.243C84.2792 104.125 84.6836 104.075 85.0576 104.093C85.4316 104.111 85.8142 104.181 86.2055 104.303L86.5056 105.41C86.1143 105.289 85.7482 105.219 85.4073 105.203C85.0664 105.187 84.6937 105.234 84.2892 105.343C83.8544 105.461 83.5076 105.664 83.2489 105.951C82.9875 106.228 82.8109 106.618 82.7191 107.12L80.8532 117.119L79.3666 117.522L81.5023 106.897C81.5969 106.404 81.7538 105.982 81.973 105.629C82.1795 105.269 82.4418 104.976 82.7602 104.748C83.0684 104.524 83.4298 104.355 83.8444 104.243ZM83.2242 107.602L89.5147 114.772L87.9826 115.187L81.8135 107.985L83.2242 107.602Z" fill="white"/>
<path d="M75.6539 118.047L75.6859 118.737L73.7559 119.189L73.2863 121.618L72.4229 121.658L72.3167 119.366L68.0151 119.565L67.9612 118.403L72.2628 118.204L72.0547 113.714C72.0179 112.918 71.8192 112.366 71.4588 112.058C71.0884 111.76 70.5369 111.629 69.8043 111.663C69.3228 111.685 68.9069 111.762 68.5563 111.894C68.1954 112.026 67.8473 112.21 67.5121 112.445L67.4531 111.174C67.6971 111.005 68.0618 110.841 68.5474 110.683C69.0226 110.524 69.5218 110.433 70.0451 110.409C70.8405 110.372 71.4905 110.478 71.995 110.727C72.4896 110.988 72.8576 111.348 73.0992 111.809C73.3309 112.281 73.4608 112.82 73.4889 113.427L73.7072 118.137L75.6539 118.047Z" fill="white"/>
<path d="M60.2987 123.931L58.8976 123.574L61.8851 111.847L63.2863 112.204L60.2987 123.931ZM56.117 119.719C55.3149 119.515 54.6761 119.179 54.2004 118.712C53.7222 118.255 53.4134 117.685 53.2742 117C53.1324 116.326 53.1701 115.563 53.3874 114.71L54.5901 109.989L55.9912 110.346L54.8506 114.823C54.5893 115.849 54.6263 116.68 54.9614 117.317C55.2939 117.964 55.9171 118.403 56.8309 118.636C57.4502 118.794 58.0347 118.792 58.5843 118.629C59.1238 118.464 59.5902 118.161 59.9835 117.72C60.364 117.287 60.6397 116.736 60.8104 116.066L61.273 116.605C60.9847 117.44 60.5789 118.121 60.0556 118.647C59.5323 119.173 58.9335 119.529 58.2593 119.714C57.5723 119.906 56.8582 119.908 56.117 119.719Z" fill="white"/>
<path d="M47.3174 117.396L46.6918 117.013L45.9735 116.863L49.2482 108.609L50.5922 109.142L47.3174 117.396ZM46.179 118.348C46.4517 118.456 46.6526 118.631 46.7817 118.874C46.8971 119.123 46.9047 119.374 46.8042 119.627C46.6999 119.89 46.5223 120.068 46.2716 120.16C46.0073 120.258 45.7388 120.253 45.4661 120.145C45.1739 120.029 44.9701 119.846 44.8546 119.598C44.7353 119.359 44.7277 119.108 44.8321 118.845C44.9325 118.591 45.1101 118.414 45.3646 118.312C45.6154 118.22 45.8868 118.232 46.179 118.348Z" fill="white"/>
<path d="M38.5875 115.01L37.4533 114.113L38.9205 111.447L42.5466 106.86L43.6808 107.757L39.928 112.504L38.5875 115.01ZM34.0596 111.69C33.4103 111.177 32.9636 110.61 32.7195 109.99C32.4689 109.378 32.4194 108.731 32.571 108.049C32.716 107.376 33.0615 106.694 33.6073 106.003L36.629 102.182L37.7632 103.078L34.8975 106.703C34.2412 107.533 33.9404 108.31 33.9953 109.035C34.0355 109.761 34.4213 110.414 35.1527 110.992C35.6623 111.395 36.2012 111.634 36.7694 111.709C37.3295 111.778 37.8788 111.691 38.4174 111.449C38.9413 111.209 39.4176 110.818 39.8465 110.275L40.0492 110.957C39.4459 111.601 38.798 112.058 38.1058 112.325C37.4135 112.592 36.7218 112.673 36.0306 112.568C35.3248 112.464 34.6678 112.171 34.0596 111.69Z" fill="white"/>
<path d="M25.4703 94.6826L24.1566 95.5736L23.9262 95.6539L22.7166 96.4743L22.4918 96.7028L19.9295 98.4407L19.1179 97.244L24.4896 93.6006C25.4434 92.9537 26.3692 92.6107 27.2668 92.5715C28.1586 92.5237 28.984 92.7235 29.7431 93.1708C30.5023 93.618 31.1671 94.2622 31.7375 95.1033C32.1669 95.7363 32.4758 96.3877 32.6642 97.0575C32.8554 97.7127 32.9365 98.4109 32.9076 99.1522L31.854 99.8668C31.926 99.0583 31.8592 98.3251 31.6534 97.6671C31.4417 97.0004 31.1507 96.3939 30.7801 95.8476C30.0626 94.7898 29.2382 94.1715 28.3069 93.993C27.3783 93.7999 26.4328 94.0297 25.4703 94.6826ZM29.307 97.5114C29.754 98.1704 30.0124 98.8687 30.0822 99.6063C30.1461 100.335 30.0238 101.032 29.7153 101.697C29.3981 102.368 28.8883 102.942 28.1859 103.418C27.4749 103.9 26.7534 104.162 26.0214 104.203C25.2808 104.249 24.588 104.105 23.9431 103.77C23.2836 103.433 22.7304 102.934 22.2834 102.275C21.9482 101.781 21.7145 101.268 21.5824 100.738C21.4417 100.213 21.3794 99.6917 21.3956 99.1743C21.4118 98.6569 21.4937 98.171 21.6412 97.7165C21.7886 97.262 21.9787 96.8609 22.2113 96.5132C22.4294 96.1627 22.6771 95.8934 22.9546 95.7052C23.3101 95.4641 23.7622 95.3094 24.3109 95.241C24.845 95.1699 25.4236 95.2017 26.0465 95.3362C26.655 95.4679 27.2497 95.7102 27.8308 96.063C28.3974 96.413 28.8894 96.8958 29.307 97.5114ZM28.124 97.8391C27.6652 97.1628 27.0424 96.6737 26.2553 96.3719C25.4683 96.0702 24.4622 95.9867 23.2369 96.1214C22.6353 97.2131 22.3365 98.1817 22.3403 99.0273C22.3296 99.8701 22.5536 100.63 23.0124 101.306C23.3947 101.87 23.8338 102.274 24.3298 102.52C24.8112 102.764 25.3133 102.86 25.8359 102.809C26.3527 102.75 26.8626 102.55 27.3655 102.209C27.8511 101.879 28.2213 101.482 28.4763 101.018C28.7166 100.551 28.8172 100.046 28.778 99.5034C28.7243 98.9575 28.5063 98.4027 28.124 97.8391Z" fill="white"/>
<path d="M8.61919 87.5276L8.31583 86.1139L20.1479 83.5749L20.4512 84.9886L8.61919 87.5276ZM10.5319 81.9092C10.3582 81.0999 10.3748 80.3784 10.5818 79.7446C10.7784 79.113 11.1522 78.5828 11.7031 78.1538C12.2438 77.727 12.9443 77.4213 13.8049 77.2366L18.5684 76.2144L18.8718 77.6281L14.3541 78.5976C13.3194 78.8196 12.5914 79.2223 12.1701 79.8056C11.7385 80.3912 11.6216 81.1449 11.8195 82.0669C11.9536 82.6918 12.2157 83.2142 12.6059 83.6341C12.9938 84.0438 13.4725 84.3269 14.0419 84.4833C14.5988 84.6317 15.2153 84.6334 15.8914 84.4883L15.6139 85.1426C14.738 85.2555 13.948 85.1946 13.244 84.9599C12.54 84.7252 11.9552 84.3471 11.4896 83.8255C11.0116 83.2958 10.6924 82.657 10.5319 81.9092Z" fill="white"/>
<path d="M16.8791 62.9981L13.5169 62.9758L12.4773 62.4764L11.3746 62.7604L8.07536 62.1126L8.22321 60.6427L12.5764 61.4912L17.027 61.5282L16.8791 62.9981ZM12.526 61.9916C13.4204 62.3132 14.1926 62.7489 14.8429 63.2987C15.4837 63.8371 15.9629 64.4644 16.2805 65.1808C16.5991 65.8868 16.7175 66.6464 16.6357 67.4595C16.5487 68.3248 16.2787 69.0716 15.8259 69.7C15.3627 70.3273 14.7676 70.7993 14.0408 71.1158C13.3046 71.4208 12.483 71.5277 11.576 71.4365C10.6587 71.3442 9.87482 71.0758 9.22453 70.6313C8.57529 70.1764 8.09136 69.596 7.77275 68.89C7.45414 68.184 7.33835 67.3984 7.42538 66.5331C7.50717 65.72 7.77448 64.9992 8.22731 64.3708C8.68118 63.732 9.27625 63.2074 10.0125 62.7971C10.7488 62.3868 11.5866 62.1183 12.526 61.9916ZM11.7239 69.9666C12.3911 70.0337 12.9937 69.9574 13.5318 69.7378C14.0709 69.5077 14.5105 69.1675 14.8507 68.7174C15.1814 68.2557 15.3777 67.7173 15.4396 67.1023C15.5025 66.4768 15.4194 65.8893 15.1904 65.3397C14.952 64.7787 14.5978 64.2692 14.1279 63.8113C13.659 63.3429 13.1041 62.9448 12.4631 62.6171C11.7697 62.8106 11.1466 63.0902 10.5939 63.4558C10.0422 63.811 9.59885 64.2403 9.2639 64.7436C8.91958 65.2355 8.71596 65.7942 8.65304 66.4197C8.59118 67.0347 8.68155 67.6019 8.92416 68.1212C9.1574 68.6291 9.51527 69.0495 9.99777 69.3823C10.4813 69.7047 11.0567 69.8995 11.7239 69.9666Z" fill="white"/>
<path d="M17.0979 47.7861C17.6246 47.9928 18.0199 48.3336 18.2837 48.8086C18.5513 49.2738 18.6719 49.8557 18.6453 50.5544C18.6226 51.2433 18.4409 52.0218 18.1003 52.8898C17.752 53.7774 17.3219 54.5147 16.8102 55.1017C16.2925 55.6752 15.7347 56.0641 15.1368 56.2684C14.5388 56.4727 13.9367 56.4727 13.3302 56.2685L13.8699 54.8933C14.2732 54.9841 14.6767 54.9454 15.0803 54.7774C15.4742 54.6056 15.839 54.321 16.175 53.9239C16.5109 53.5267 16.7937 53.0355 17.0234 52.4503C17.3564 51.6018 17.4898 50.8888 17.4238 50.3114C17.3518 49.7204 17.0915 49.3369 16.6429 49.1608C16.2918 49.023 15.9721 49.0776 15.6838 49.3247C15.3857 49.5679 15.0263 50.0965 14.6056 50.9106L13.8188 52.4421C13.4308 53.2015 13.0406 53.78 12.6482 54.1775C12.2499 54.5615 11.8545 54.7946 11.4621 54.877C11.0598 54.9555 10.6636 54.9182 10.2735 54.7651C9.73708 54.5546 9.35158 54.2176 9.11701 53.7541C8.87652 53.277 8.77845 52.7095 8.82278 52.0516C8.85737 51.3899 9.02584 50.6738 9.32822 49.9032C9.64972 49.084 10.0519 48.4033 10.5348 47.8612C11.0215 47.3093 11.5491 46.9255 12.1178 46.7097C12.6865 46.4939 13.2516 46.4737 13.813 46.649L13.2791 48.0096C12.9479 47.9359 12.6076 47.9712 12.2583 48.1155C11.8993 48.256 11.5557 48.515 11.2274 48.8927C10.9029 49.2606 10.6163 49.7615 10.3675 50.3955C10.0613 51.1758 9.93424 51.8294 9.98633 52.3563C10.0422 52.8735 10.2848 53.2163 10.7139 53.3847C11.026 53.5072 11.3302 53.4633 11.6265 53.2532C11.9229 53.0431 12.2516 52.5925 12.6129 51.9013L13.515 50.1619C13.9184 49.3635 14.3113 48.7636 14.694 48.3622C15.0766 47.9608 15.4622 47.7239 15.8509 47.6513C16.2433 47.5689 16.659 47.6139 17.0979 47.7861Z" fill="white"/>
<path d="M27.7386 33.9174L25.1261 31.8009L24.6258 30.7617L23.5871 30.2952L21.4142 27.7294L22.4474 26.6734L25.3182 30.054L28.7718 32.8615L27.7386 33.9174ZM24.9665 30.4135C25.4643 31.2231 25.7956 32.0456 25.9603 32.881C26.1248 33.7016 26.1075 34.4909 25.9083 35.2488C25.7164 35.9992 25.3347 36.6664 24.7632 37.2506C24.155 37.8722 23.4779 38.287 22.7318 38.4952C21.9783 38.6961 21.2188 38.6932 20.4534 38.4867C19.6879 38.2654 18.9793 37.836 18.3278 37.1985C17.6688 36.5537 17.224 35.8546 16.9935 35.1014C16.7704 34.3407 16.7547 33.5852 16.9466 32.8348C17.1385 32.0844 17.5385 31.3984 18.1467 30.7768C18.7182 30.1926 19.377 29.7965 20.1231 29.5883C20.8764 29.3726 21.6688 29.3344 22.5001 29.4735C23.3315 29.6126 24.1536 29.9259 24.9665 30.4135ZM19.361 36.1425C19.8403 36.6115 20.3587 36.9281 20.9161 37.0925C21.4809 37.2493 22.0367 37.2581 22.5835 37.1188C23.1301 36.9646 23.6195 36.6666 24.0518 36.2248C24.4915 35.7754 24.7934 35.2646 24.9576 34.6923C25.1216 34.1052 25.163 33.4861 25.0818 32.835C25.0079 32.1764 24.8229 31.519 24.5268 30.8628C23.8644 30.5811 23.2031 30.4105 22.543 30.351C21.8903 30.284 21.276 30.3426 20.7001 30.5267C20.124 30.6959 19.6162 31.0053 19.1765 31.4546C18.7442 31.8964 18.4607 32.3959 18.326 32.9531C18.1911 33.4954 18.2083 34.0472 18.3774 34.6085C18.5538 35.1622 18.8817 35.6736 19.361 36.1425Z" fill="white"/>
<path d="M23.6967 20.6059L24.8277 19.705L32.3677 29.1703L31.2368 30.0712L23.6967 20.6059Z" fill="white"/>
<path d="M31.5769 17.9013L32.8655 17.2455L34.6825 19.7065L37.3273 24.9028L36.0388 25.5587L33.2727 20.1243L31.5769 17.9013ZM37.4873 14.8578L38.079 16.0203C37.8731 16.0545 37.6416 16.1195 37.3846 16.215C37.1369 16.3058 36.9056 16.4059 36.6909 16.5152C36.1306 16.8004 35.6952 17.1807 35.3847 17.6562C35.0742 18.1317 34.9211 18.674 34.9254 19.2831C34.9251 19.8829 35.0912 20.5096 35.4239 21.1632L34.8031 20.8443C34.5413 20.2839 34.371 19.7299 34.2921 19.1822C34.2132 18.6345 34.233 18.1189 34.3513 17.6355C34.4743 17.1379 34.6937 16.6912 35.0095 16.2953C35.3298 15.8853 35.7515 15.5473 36.2744 15.2811C36.4705 15.1813 36.6783 15.0932 36.898 15.0166C37.1271 14.9353 37.3235 14.8824 37.4873 14.8578Z" fill="white"/>
<path d="M48.8704 19.3873C47.8736 19.5853 46.952 19.5708 46.1058 19.3437C45.2677 19.1042 44.5604 18.6893 43.9837 18.0988C43.4153 17.496 43.0423 16.7476 42.8647 15.8536C42.685 14.9492 42.7333 14.1171 43.0097 13.3572C43.286 12.5973 43.7512 11.9547 44.4053 11.4295C45.0594 10.9043 45.8591 10.5478 46.8046 10.36C47.7398 10.1742 48.5976 10.2174 49.378 10.4896C50.1585 10.7619 50.8134 11.2353 51.3427 11.91C51.8802 12.5723 52.2469 13.3967 52.4429 14.3833L44.0264 16.0554L43.8028 14.9301L51.6182 13.3774L50.8868 14.0515C50.7274 13.4102 50.462 12.8808 50.0906 12.4632C49.7192 12.0456 49.2716 11.7553 48.7479 11.5923C48.2241 11.4293 47.6488 11.41 47.0219 11.5346C46.3437 11.6693 45.7803 11.9254 45.3319 12.303C44.8814 12.6702 44.5613 13.129 44.3716 13.6795C44.1921 14.2279 44.1687 14.8361 44.3014 15.504C44.4403 16.2028 44.72 16.7775 45.1407 17.228C45.5613 17.6786 46.0869 17.9854 46.7176 18.1486C47.3482 18.3117 48.054 18.3157 48.835 18.1605C49.5441 18.0196 50.2143 17.7637 50.8456 17.3925C51.4871 17.0194 52.0394 16.5732 52.5024 16.0539L52.7229 17.1638C52.2743 17.7016 51.7055 18.1724 51.0167 18.5763C50.3257 18.97 49.6103 19.2403 48.8704 19.3873Z" fill="white"/>
<path d="M65.5948 16.9992L65.6688 13.6378L66.1842 12.6059L65.9172 11.499L66.6157 8.21013L68.0831 8.38057L67.1677 12.7202L67.0623 17.1697L65.5948 16.9992ZM66.6681 12.6621C66.3328 13.5514 65.8853 14.3169 65.3255 14.9586C64.7774 15.5911 64.1428 16.0606 63.4215 16.3671C62.7107 16.6748 61.9495 16.7815 61.1377 16.6872C60.2739 16.5869 59.5313 16.3055 58.9099 15.8431C58.2898 15.3702 57.8271 14.768 57.5218 14.0364C57.2281 13.2955 57.1338 12.4724 57.239 11.567C57.3454 10.6511 57.6258 9.87149 58.0802 9.22812C58.5451 8.58595 59.1329 8.11101 59.8437 7.8033C60.5545 7.49559 61.3418 7.3919 62.2057 7.49223C63.0174 7.58652 63.734 7.86488 64.3554 8.32732C64.9871 8.79097 65.5025 9.39404 65.9014 10.1365C66.3004 10.879 66.556 11.7209 66.6681 12.6621ZM58.7064 11.7374C58.6291 12.4035 58.6961 13.0072 58.9074 13.5486C59.1292 14.0912 59.4625 14.536 59.9074 14.883C60.364 15.2208 60.8992 15.4254 61.5133 15.4967C62.1377 15.5693 62.7264 15.4952 63.2795 15.2747C63.8441 15.0449 64.359 14.6986 64.8241 14.2358C65.2996 13.7742 65.7061 13.2255 66.0437 12.5896C65.8609 11.8933 65.5909 11.266 65.2339 10.7077C64.8872 10.1506 64.4648 9.7007 63.9667 9.35805C63.4801 9.0062 62.9247 8.79402 62.3002 8.72149C61.6862 8.65017 61.1176 8.73181 60.5947 8.9664C60.0833 9.1918 59.6575 9.54316 59.3172 10.0205C58.9874 10.499 58.7838 11.0713 58.7064 11.7374Z" fill="white"/>
<path d="M79.8097 19.7339L80.9205 16.5273L81.7358 15.7583L81.8394 14.5799L85.1136 8.85176L86.4587 9.46257L82.6412 16.0832L81.1548 20.3447L79.8097 19.7339ZM82.143 15.926C81.5519 16.6702 80.8918 17.2622 80.1627 17.7021C79.4475 18.1368 78.6997 18.3899 77.9193 18.4613C77.1485 18.537 76.391 18.4059 75.6469 18.068C74.8551 17.7085 74.234 17.2136 73.7838 16.5834C73.3378 15.9436 73.0813 15.2288 73.0142 14.4389C72.961 13.6437 73.1229 12.8312 73.4998 12.0012C73.881 11.1617 74.3863 10.5051 75.0156 10.0314C75.6545 9.56206 76.3594 9.28952 77.1302 9.21379C77.901 9.13805 78.6824 9.27996 79.4742 9.63952C80.2183 9.97741 80.8155 10.4615 81.2658 11.0917C81.7256 11.7262 82.0319 12.458 82.1849 13.2869C82.3378 14.1158 82.3238 14.9955 82.143 15.926ZM74.8449 12.612C74.5677 13.2226 74.4469 13.8179 74.4827 14.398C74.528 14.9824 74.7094 15.5078 75.027 15.9742C75.3584 16.4354 75.8055 16.7938 76.3684 17.0493C76.9408 17.3093 77.524 17.4187 78.1179 17.3778C78.7257 17.3316 79.3218 17.1592 79.9061 16.8607C80.5 16.5665 81.0548 16.1683 81.5706 15.666C81.6093 14.9472 81.544 14.2674 81.3747 13.6267C81.2149 12.9903 80.9502 12.4328 80.5806 11.9543C80.2249 11.4706 79.7609 11.0988 79.1885 10.8388C78.6256 10.5833 78.0594 10.4872 77.4897 10.5507C76.9339 10.6091 76.4211 10.8135 75.9512 11.1639C75.4909 11.5188 75.1221 12.0015 74.8449 12.612Z" fill="white"/>
<path d="M85.3889 24.5034C85.0438 24.2138 84.7718 23.9104 84.573 23.5931C84.3742 23.2758 84.2131 22.9218 84.0897 22.531L84.8272 21.6522C84.9506 22.043 85.103 22.3829 85.2845 22.6719C85.466 22.961 85.7172 23.2402 86.0383 23.5096C86.3834 23.7992 86.7477 23.9681 87.1312 24.0164C87.508 24.0727 87.9288 23.995 88.3937 23.7832L97.6663 19.6033L98.8461 20.5933L88.905 24.9098C88.4468 25.1135 88.0104 25.2261 87.5958 25.2475C87.1825 25.2836 86.7916 25.236 86.4232 25.1046C86.0627 24.98 85.718 24.7796 85.3889 24.5034ZM88.5007 23.0934L90.792 13.8348L92.008 14.8551L89.6203 24.0329L88.5007 23.0934Z" fill="white"/>
<path d="M110.78 26.2087L111.44 27.4948L105.625 30.482L105.097 30.4526L103.909 31.063L103.486 31.5807L100.676 33.0241L100.015 31.7379L110.78 26.2087ZM104.295 30.37C105.221 30.1537 106.099 30.0973 106.929 30.2008C107.764 30.3135 108.508 30.5796 109.159 30.9989C109.815 31.4276 110.33 32.0054 110.703 32.7323C111.1 33.5059 111.28 34.2794 111.241 35.053C111.203 35.8266 110.962 36.5391 110.52 37.1906C110.082 37.8514 109.452 38.3924 108.632 38.8137C107.822 39.2302 107.015 39.4264 106.214 39.4023C105.426 39.3828 104.702 39.1657 104.042 38.7511C103.391 38.3318 102.866 37.7354 102.469 36.9618C102.096 36.2349 101.926 35.4799 101.959 34.697C101.998 33.9234 102.214 33.1643 102.609 32.4196C103.018 31.6795 103.58 30.9963 104.295 30.37ZM107.957 37.4996C108.554 37.1932 109.016 36.7969 109.343 36.3107C109.675 35.8338 109.855 35.3118 109.881 34.7445C109.922 34.1817 109.801 33.6254 109.519 33.0755C109.232 32.5164 108.835 32.0661 108.33 31.7249C107.839 31.3881 107.272 31.1553 106.629 31.0264C105.985 30.8975 105.303 30.8651 104.582 30.9292C104.11 31.4779 103.739 32.0512 103.469 32.6493C103.199 33.2473 103.054 33.8464 103.032 34.4464C103.025 35.051 103.164 35.6328 103.452 36.192C103.734 36.7419 104.111 37.1666 104.583 37.466C105.069 37.77 105.603 37.9259 106.184 37.9336C106.77 37.9507 107.361 37.806 107.957 37.4996Z" fill="white"/>
<path d="M108.432 48.8369C108.23 47.8408 108.241 46.9192 108.465 46.072C108.701 45.2331 109.113 44.5242 109.702 43.9453C110.302 43.3746 111.049 42.9987 111.943 42.8177C112.846 42.6346 113.679 42.6797 114.44 42.9531C115.201 43.2265 115.845 43.6893 116.373 44.3414C116.9 44.9934 117.26 45.7918 117.451 46.7366C117.641 47.671 117.601 48.529 117.331 49.3105C117.062 50.092 116.591 50.7487 115.919 51.2805C115.258 51.8206 114.435 52.1905 113.45 52.3902L111.745 43.9802L112.87 43.7523L114.452 51.5616L113.775 50.8329C114.416 50.671 114.944 50.4035 115.361 50.0306C115.777 49.6576 116.065 49.2089 116.226 48.6845C116.387 48.1602 116.404 47.5848 116.278 46.9584C116.14 46.2806 115.882 45.7183 115.503 45.2713C115.134 44.8222 114.674 44.5039 114.123 44.3162C113.573 44.1389 112.965 44.1178 112.298 44.2531C111.599 44.3946 111.026 44.6765 110.577 45.0989C110.128 45.5212 109.823 46.0481 109.662 46.6793C109.502 47.3105 109.5 48.0163 109.659 48.7968C109.802 49.5053 110.061 50.1745 110.434 50.8044C110.81 51.4445 111.258 51.9951 111.779 52.4561L110.67 52.6808C110.131 52.2343 109.658 51.6673 109.251 50.98C108.855 50.2906 108.582 49.5762 108.432 48.8369Z" fill="white"/>
<path d="M51.505 75.505C51.2317 75.7784 51.2317 76.2216 51.505 76.495C51.7784 76.7683 52.2216 76.7683 52.495 76.495L51.505 75.505ZM52.495 76.495L76.495 52.495L75.505 51.505L51.505 75.505L52.495 76.495Z" fill="#FF0E7A"/>
<path d="M58 52H76V70" stroke="#FF0E7A" stroke-width="1.4" stroke-linecap="round" stroke-linejoin="round"/>
</svg>
