<svg width="24" height="25" viewBox="0 0 24 25" fill="none" xmlns="http://www.w3.org/2000/svg">
<path opacity="0.3" d="M10.1574 16.21C10.732 16.3712 11.3375 16.4574 11.9628 16.4574C12.5881 16.4574 13.1935 16.3712 13.7682 16.21L14.2785 17.5882C14.2963 17.6362 14.3054 17.687 14.3054 17.7381C14.3054 17.9739 14.1166 18.1651 13.8838 18.1651L12.8059 18.1379C12.8618 19.3256 13.2943 20.0083 14.417 20.3873C14.8588 20.5364 15.0975 21.0199 14.9503 21.4673C14.803 21.9147 14.3255 22.1564 13.8838 22.0073C12.0724 21.3958 11.1785 20.0881 11.1217 18.1651H10.0418C9.99123 18.1651 9.9411 18.1559 9.89377 18.1379C9.67577 18.0551 9.56532 17.809 9.64707 17.5882L10.1574 16.21Z" fill="#0A0A0A"/>
<path fill-rule="evenodd" clip-rule="evenodd" d="M12 16.5C8.13401 16.5 5 13.366 5 9.5C5 5.63401 8.13401 2.5 12 2.5C15.866 2.5 19 5.63401 19 9.5C19 13.366 15.866 16.5 12 16.5ZM8.81596 9.30077C8.79068 8.93922 8.47708 8.66662 8.11553 8.6919C7.75398 8.71718 7.48137 9.03078 7.50665 9.39233C7.62279 11.0532 8.39667 12.3635 9.79502 13.2671C10.0994 13.4638 10.5057 13.3765 10.7024 13.0721C10.8991 12.7677 10.8118 12.3615 10.5074 12.1648C9.45599 11.4854 8.90328 10.5495 8.81596 9.30077Z" fill="#0A0A0A"/>
</svg>
