<svg width="1440" height="1050" viewBox="0 0 1440 1050" fill="none" xmlns="http://www.w3.org/2000/svg">
<mask id="mask0_27_3049" style="mask-type:alpha" maskUnits="userSpaceOnUse" x="-17" y="-701" width="1474" height="2425">
<rect x="-16.4882" y="-700.488" width="1472.98" height="2423.91" fill="url(#paint0_linear_27_3049)" stroke="white" stroke-width="1.02361"/>
</mask>
<g mask="url(#mask0_27_3049)">
<path d="M1457 -407.543C656.534 -407.543 -143.932 -407.543 -944.398 -407.543C-943.52 370.928 -943.52 1149.4 -944.398 1927.87C-143.957 1928.67 656.509 1928.67 1457 1927.87V-407.543Z" stroke="white" stroke-width="2.04722" stroke-miterlimit="10"/>
<path d="M1457 1483.03H1111.59C1064.28 1483.03 1000.23 1494.22 956.11 1476.19C901.124 1453.69 884.313 1394.84 869.043 1342.79C845.462 1262.33 836.886 1058.16 732.857 1030.65C621.231 1001.17 467.82 1193.71 402.115 1255.78C318.508 1334.78 201.541 1486.21 70.1315 1482.19C-39.6896 1478.86 -149.511 1401.72 -245.792 1357.32C-360.578 1304.39 -453.738 1286.17 -574.842 1336.21C-699.444 1387.71 -807.159 1465.33 -944.398 1482.99" stroke="white" stroke-width="2.04722" stroke-miterlimit="10"/>
<path d="M1457 1371.84H1111.59C1064.43 1371.84 1000.75 1382.81 956.486 1365.69C900.41 1343.93 880.326 1282.84 861.784 1230.98C832.599 1149.49 809.77 938.879 704.499 912.543C590.992 884.197 439.875 1075.57 373.08 1138.95C288.871 1218.91 172.431 1371.1 39.7801 1365.25C-65.5279 1360.64 -173.168 1302.08 -270.502 1266.97C-385.251 1225.57 -476.718 1208.63 -595.227 1251.21C-713.097 1293.56 -817.878 1354.06 -944.323 1371.69" stroke="white" stroke-width="2.04722" stroke-miterlimit="10"/>
<path d="M1457 1260.6H1111.59C1062.28 1260.6 1001.43 1270.33 954.568 1254.24C892.888 1233.1 861.408 1169.71 833.088 1116.31C787.429 1030.17 730.3 813.455 615.364 790.484C496.591 766.783 352.959 947.361 280.635 1014.63C186.61 1102.41 83.784 1229.48 -54.6584 1239.83C-149.624 1246.89 -254.292 1224.5 -349.07 1215.72C-450.88 1206.32 -550.02 1199.23 -651.604 1215.47C-749.992 1231.2 -844.431 1255.04 -944.548 1260.57" stroke="white" stroke-width="2.04722" stroke-miterlimit="10"/>
<path d="M1457 1149.41H1111.59C1060.1 1149.41 1001.32 1157.64 951.898 1142.72C882.771 1121.87 838.541 1056.14 799.164 1000.95C732.556 907.675 641.954 690.045 512.5 666.782C390.456 644.836 249.757 818.904 174.011 888.217C72.4636 981.011 -22.8401 1087.56 -163.577 1112.54C-257.602 1129.22 -347.301 1150.43 -439.897 1173.11C-533.922 1196.08 -619.334 1208.96 -715.691 1190.6C-792.754 1175.96 -865.529 1155.7 -944.473 1149.48" stroke="white" stroke-width="2.04722" stroke-miterlimit="10"/>
<path d="M1457 1038.14H1111.59C1059.31 1038.14 1001.39 1045.64 950.995 1031.37C877.392 1010.52 824.475 942.343 777.989 887.112C697.09 791.355 581.026 570.396 442.884 546.95C319.674 526.138 180.028 696.731 102.439 766.629C-3.13273 861.728 -95.9165 956.827 -236.841 989.49C-336.508 1012.64 -412.104 1061.8 -500.412 1109.57C-579.844 1152.51 -674.509 1190.04 -760.335 1139.38C-829.537 1098.89 -856.052 1050.46 -944.398 1038.14" stroke="white" stroke-width="2.04722" stroke-miterlimit="10"/>
<path d="M1457 926.984H1111.59C1058.94 926.984 1001.96 934.007 951.484 918.974C880.589 897.869 825.641 833.092 777.726 781.592C693.705 691.211 572.338 487.553 439.236 463.669C322.645 442.82 177.245 605.403 99.9564 669.083C-5.95331 756.318 -102.536 845.784 -238.308 878.63C-338.802 902.99 -417.106 949.479 -507.746 996.187C-585.749 1036.42 -686.055 1077.17 -769.511 1025.45C-836.72 983.824 -854.961 938.25 -944.36 927.021" stroke="white" stroke-width="2.04722" stroke-miterlimit="10"/>
<path d="M1457 815.763H1111.59C970.176 815.763 897.664 803.875 784.383 712.032C694.307 638.878 583.207 501.168 460.298 484.489C347.693 469.236 214.892 575.93 125.569 628.271C17.8912 691.805 -83.1291 755.448 -208.258 774.797C-311.873 790.854 -407.591 819.64 -507.972 848.17C-592.18 872.054 -694.856 900.584 -780.907 868.469C-840.745 846.158 -874.932 820.701 -944.398 815.763" stroke="white" stroke-width="2.04722" stroke-miterlimit="10"/>
<path d="M1457 704.569C1245.48 704.569 989.922 744.803 793.409 657.02C694.646 612.872 598.891 550.765 487.603 543.632C376.315 536.5 264.049 577.868 159.305 608.483C50.236 640.341 -55.072 671.87 -169.557 672.674C-282.612 673.442 -394.841 682.879 -507.52 690.195C-652.695 699.631 -798.922 700.546 -944.435 704.386" stroke="white" stroke-width="2.04722" stroke-miterlimit="10"/>
<path d="M1457 593.345C1240.74 593.345 1015.01 611.45 800.066 587.566C593.776 564.669 393.013 560.133 185.143 567.778C-47.8509 576.373 -275.579 560.17 -507.746 542.357C-592.18 535.883 -726.598 504.866 -806.67 542.357C-858.609 566.644 -879.408 587.822 -944.435 593.308" stroke="white" stroke-width="2.04722" stroke-miterlimit="10"/>
<path d="M1457 482.178C1035.58 482.178 613.145 490.919 192.138 471.461C-43.7891 460.488 -272.759 449.515 -507.031 418.498C-584.734 408.256 -735.098 372.155 -807.911 415.316C-824.309 425.045 -828.183 440.334 -842.287 451.161C-876.7 477.459 -899.266 480.129 -944.398 482.178" stroke="white" stroke-width="2.04722" stroke-miterlimit="10"/>
<path d="M1457 370.912C1040.66 370.912 623.525 378.227 207.446 362.792C105.41 358.951 3.14814 358.732 -98.7749 354.709C-230.711 349.515 -359.901 309.061 -487.963 281.043C-567.283 263.669 -722.838 215.644 -796.365 271.57C-857.481 317.876 -850.373 363.853 -944.398 370.985" stroke="white" stroke-width="2.04722" stroke-miterlimit="10"/>
<path d="M1457 259.728C1048.18 259.728 638.945 264.959 230.237 255.376C136.212 253.181 40.0811 257.973 -53.4926 250.218C-192.386 238.77 -328.234 174.944 -459.229 132.113C-545.732 103.839 -701.024 37.4524 -780.381 113.824C-844.694 175.675 -838.15 243.671 -944.586 259.765" stroke="white" stroke-width="2.04722" stroke-miterlimit="10"/>
<path d="M1457 148.493C1054.57 148.493 652.146 150.724 249.719 147.432C163.216 146.737 71.711 154.748 -14.5287 145.018C-159.741 128.705 -301.907 43.1525 -434.444 -12.0415C-528.469 -51.1053 -680.301 -131.318 -766.089 -38.2304C-833.787 35.1788 -828.183 124.608 -944.586 148.31" stroke="white" stroke-width="2.04722" stroke-miterlimit="10"/>
<path d="M1457 37.2994H256.301C171.867 37.2994 82.4302 45.6023 -1.62809 36.129C-149.097 19.5233 -292.842 -74.2225 -425.418 -133.659C-521.436 -176.71 -670.71 -259.19 -759.018 -162.372C-828.183 -86.5122 -825.926 12.5006 -944.435 37.2629" stroke="white" stroke-width="2.04722" stroke-miterlimit="10"/>
<path d="M-29.5408 -407.473C-27.7355 -297.743 -32.8129 -188.013 -34.8438 -78.2836C-36.8371 28.081 -34.8437 117.62 -74.6351 217.987C-109.838 307.343 -152.3 390.884 -163.808 487.19C-173.121 568.156 -191.547 647.883 -218.757 724.938C-244.444 798.347 -282.694 884.704 -271.862 964.222C-255.69 1083.94 -129.395 1182.07 -55.6045 1270.59C33.2679 1377.21 50.3805 1454.27 27.1375 1586.83C7.24182 1700.91 -23.5231 1811.52 -29.7288 1927.61" stroke="white" stroke-width="2.04722" stroke-miterlimit="10"/>
<path d="M84.7631 -407.543C84.7631 -204.214 119.515 30.315 46.0247 223.988C12.5518 312.137 -27.8414 395.02 -38.7483 489.643C-48.0003 570.112 -61.6527 635.95 -94.9751 711.846C-125.063 780.208 -160.116 857.896 -149.322 934.414C-132.284 1055.12 -5.27536 1157.93 68.1017 1248.97C155.357 1357.13 176.23 1434.34 150.844 1567.81C127.751 1688.51 89.4267 1804.68 84.8382 1928.13" stroke="white" stroke-width="2.04722" stroke-miterlimit="10"/>
<path d="M198.949 -407.543C198.949 -200.556 224.975 24.0604 171.306 225.817C147.348 315.832 118.84 402.262 110.641 495.496C104.887 560.419 97.9663 600.69 59.1904 655.226C-70.9026 838.108 110.415 985.841 224.035 1127.06C319.452 1245.64 329.343 1324.36 297.299 1469.2C263.45 1622.13 209.292 1771.1 198.912 1928.05" stroke="white" stroke-width="2.04722" stroke-miterlimit="10"/>
<path d="M313.475 -407.543C313.475 -197.228 328.895 19.3787 300.838 228.341C288.502 320.221 275 410.382 270.75 503.067C270.336 512.248 274.811 566.052 260.482 576.22C246.717 586.059 236.788 576.22 225.843 581.561C214.899 586.901 205.158 576.111 191.242 586.901C175.935 598.788 179.733 643.338 181.877 660.237C196.921 778.342 321.824 879.696 393.095 968.65C498.741 1100.33 492.197 1184.23 453.271 1343.89C405.845 1538.11 334.649 1728.38 313.738 1927.69" stroke="white" stroke-width="2.04722" stroke-miterlimit="10"/>
<path d="M427.842 -407.543C427.842 -222.758 430.437 -37.7905 428.256 146.994C427.278 228.414 422.84 309.76 420.734 391.143C419.718 435.254 439.2 531.158 411.106 566.125C381.657 545.972 378.046 503.945 348.635 483.901C264.991 608.261 561.696 842.351 612.996 938.328C678.588 1060.93 606.715 1222.09 572.64 1345.21C519.422 1537.64 451.988 1729.26 427.692 1927.69" stroke="white" stroke-width="2.04722" stroke-miterlimit="10"/>
<path d="M542.175 -407.543V392.313C542.175 435.583 561.168 532.438 532.622 566.381C504.866 540.778 502.534 498.093 474.74 472.526C392.638 588.071 681.031 832.988 729.059 924.064C794.989 1049.23 723.455 1209.36 689.005 1335.11C635.41 1530.94 567.75 1726.08 542.326 1927.65" stroke="white" stroke-width="2.04722" stroke-miterlimit="10"/>
<path d="M656.547 -407.543V230.425C656.547 323.586 658.917 416.966 656.547 510.236C656.547 510.419 659.33 574.684 649.025 579.731C645.452 581.414 623.789 579.914 627.136 576.952C629.017 575.269 610.738 570.916 605.285 574.208C592.497 581.926 597.763 630.975 599.267 643.704C611.49 752.556 697.053 850.178 751.437 941.986C831.885 1077.54 822.257 1167.77 788.596 1319.71C743.802 1522.09 678.587 1721.36 656.547 1927.76" stroke="white" stroke-width="2.04722" stroke-miterlimit="10"/>
<path d="M770.884 -407.543V230.426C770.884 373.476 785.101 521.904 755.238 662.395C721.089 823.332 770.696 952.74 822.936 1104.46C915.419 1373.04 783.07 1655.45 770.847 1927.91" stroke="white" stroke-width="2.04722" stroke-miterlimit="10"/>
<path d="M885.251 -407.543C885.251 -26.8542 896.534 355.773 881.49 736.243C874.937 905.918 881.008 1075.83 899.656 1244.66C924.29 1473.08 881.452 1699.67 885.213 1928.02" stroke="white" stroke-width="2.04722" stroke-miterlimit="10"/>
<path d="M999.586 -407.543V1927.87" stroke="white" stroke-width="2.04722" stroke-miterlimit="10"/>
<path d="M1113.95 -407.543V1927.87" stroke="white" stroke-width="2.04722" stroke-miterlimit="10"/>
<path d="M1228.3 -407.543V1927.87" stroke="white" stroke-width="2.04722" stroke-miterlimit="10"/>
<path d="M1342.67 -407.543V1927.87" stroke="white" stroke-width="2.04722" stroke-miterlimit="10"/>
</g>
<defs>
<linearGradient id="paint0_linear_27_3049" x1="23.9444" y1="1162.73" x2="1925.43" y2="559.492" gradientUnits="userSpaceOnUse">
<stop stop-color="#D9D9D9" stop-opacity="0.43"/>
<stop offset="1" stop-color="#D9D9D9" stop-opacity="0"/>
</linearGradient>
</defs>
</svg>
