<svg width="36" height="36" viewBox="0 0 36 36" fill="none" xmlns="http://www.w3.org/2000/svg">
<path opacity="0.5" d="M9.33313 6.90157C9.99998 6.456 10.7002 6.06954 11.4257 5.74464C13.4835 4.82308 14.5124 4.3623 15.8812 5.2491C17.25 6.13591 17.25 7.59061 17.25 10.5V12.75C17.25 15.5784 17.25 16.9926 18.1287 17.8713C19.0074 18.75 20.4216 18.75 23.25 18.75H25.5C28.4094 18.75 29.8641 18.75 30.7509 20.1188C31.6377 21.4876 31.1769 22.5165 30.2554 24.5744C29.9305 25.2999 29.544 26 29.0984 26.6669C27.5326 29.0103 25.3071 30.8367 22.7032 31.9153C20.0994 32.9938 17.2342 33.276 14.47 32.7262C11.7057 32.1764 9.16663 30.8192 7.17374 28.8263C5.18084 26.8334 3.82366 24.2943 3.27382 21.53C2.72398 18.7658 3.00617 15.9006 4.08472 13.2968C5.16327 10.6929 6.98973 8.46738 9.33313 6.90157Z" fill="#0419FD"/>
<path d="M32.1691 10.6035C30.9513 7.51247 28.4876 5.04868 25.3965 3.83097C23.0842 2.92004 21 5.01474 21 7.50002V13.5C21 14.3285 21.6716 15 22.5 15H28.5C30.9853 15 33.08 12.9158 32.1691 10.6035Z" fill="#0419FD"/>
</svg>
