<svg width="36" height="36" viewBox="0 0 36 36" fill="none" xmlns="http://www.w3.org/2000/svg">
<path fill-rule="evenodd" clip-rule="evenodd" d="M21 30.75V6.375C21 5.28254 20.9976 4.57636 20.9277 4.05604C20.8621 3.56809 20.7561 3.41514 20.6705 3.3295C20.5849 3.24387 20.4319 3.13795 19.944 3.07234C19.4236 3.00239 18.7175 3 17.625 3C16.5325 3 15.8264 3.00239 15.306 3.07234C14.8181 3.13795 14.6651 3.24387 14.5795 3.3295C14.4939 3.41514 14.3879 3.56809 14.3223 4.05604C14.2524 4.57636 14.25 5.28254 14.25 6.375V30.75H21Z" fill="#FF0E7A"/>
<path opacity="0.7" d="M12 13.125C12 12.5037 11.4963 12 10.875 12H6.375C5.75368 12 5.25 12.5037 5.25 13.125V30.75H12V13.125Z" fill="#FF0E7A"/>
<path opacity="0.7" d="M30 20.625C30 20.0037 29.4963 19.5 28.875 19.5H24.375C23.7537 19.5 23.25 20.0037 23.25 20.625V30.75H30V20.625Z" fill="#FF0E7A"/>
<path opacity="0.5" d="M2.625 30.75C2.00368 30.75 1.5 31.2537 1.5 31.875C1.5 32.4963 2.00368 33 2.625 33H32.625C33.2463 33 33.75 32.4963 33.75 31.875C33.75 31.2537 33.2463 30.75 32.625 30.75H32.25H30H23.25H21H14.25H12H5.25H3H2.625Z" fill="#FF0E7A"/>
</svg>
