<svg width="36" height="36" viewBox="0 0 36 36" fill="none" xmlns="http://www.w3.org/2000/svg">
<path d="M22.8774 16.0335C21.3974 14.2627 20.6575 13.3773 19.8068 13.5137C18.9562 13.6501 18.5582 14.7179 17.7624 16.8535L17.5564 17.406C17.3303 18.0129 17.2172 18.3164 16.9972 18.5399C16.7771 18.7634 16.4751 18.8817 15.8709 19.1183L15.3209 19.3338C13.195 20.1664 12.132 20.5827 12.0108 21.4337C11.8896 22.2846 12.7904 23.0066 14.592 24.4507L15.0581 24.8243C15.57 25.2346 15.826 25.4398 15.9742 25.7206C16.1223 26.0015 16.1459 26.3262 16.1931 26.9756L16.2361 27.5669C16.4021 29.8523 16.4851 30.995 17.2608 31.3845C18.0366 31.774 18.9912 31.1524 20.9006 29.9093L21.3945 29.5876C21.9371 29.2344 22.2084 29.0577 22.52 29.0078C22.8316 28.9578 23.1482 29.0402 23.7815 29.2049L24.3581 29.3549C26.5866 29.9347 27.7009 30.2246 28.3016 29.6145C28.9022 29.0043 28.5914 27.8981 27.9699 25.6857L27.8091 25.1133C27.6325 24.4847 27.5441 24.1703 27.5885 23.8586C27.633 23.5469 27.8051 23.2731 28.1493 22.7255L28.4626 22.2269C29.6739 20.2999 30.2796 19.3363 29.8751 18.5697C29.4706 17.803 28.3238 17.741 26.0304 17.6168L25.437 17.5847C24.7853 17.5494 24.4594 17.5318 24.1753 17.3891C23.8911 17.2464 23.6808 16.9948 23.2603 16.4916L22.8774 16.0335Z" fill="black" fill-opacity="0.7"/>
<path opacity="0.5" d="M15.4968 6.37799C17.4701 4.01695 18.4567 2.83642 19.5909 3.01826C20.7251 3.20009 21.2557 4.62385 22.3169 7.47138L22.5914 8.20807C22.893 9.01724 23.0437 9.42183 23.3371 9.71987C23.6305 10.0179 24.0332 10.1756 24.8387 10.4911L25.5721 10.7784C28.4067 11.8885 29.8239 12.4436 29.9856 13.5782C30.1472 14.7128 28.9462 15.6755 26.5441 17.6009L25.9226 18.099C25.24 18.6461 24.8987 18.9197 24.7011 19.2942C24.5036 19.6686 24.4721 20.1016 24.4092 20.9675L24.3519 21.7558C24.1305 24.803 24.0198 26.3266 22.9855 26.846C21.9513 27.3654 20.6784 26.5366 18.1326 24.879L17.474 24.4502C16.7505 23.9791 16.3888 23.7436 15.9733 23.677C15.5579 23.6104 15.1357 23.7202 14.2913 23.9399L13.5226 24.1399C10.5511 24.913 9.06544 25.2995 8.26458 24.4859C7.46372 23.6723 7.87809 22.1974 8.70683 19.2476L8.92123 18.4845C9.15673 17.6462 9.27448 17.2271 9.21527 16.8115C9.15606 16.3959 8.92659 16.0308 8.46765 15.3006L8.04982 14.6359C6.43478 12.0665 5.62726 10.7818 6.16658 9.75958C6.7059 8.73737 8.23489 8.65461 11.2929 8.48911L12.084 8.44629C12.953 8.39926 13.3875 8.37574 13.7663 8.18548C14.1452 7.99522 14.4256 7.65976 14.9863 6.98882L15.4968 6.37799Z" fill="black" fill-opacity="0.7"/>
</svg>
