<svg width="36" height="36" viewBox="0 0 36 36" fill="none" xmlns="http://www.w3.org/2000/svg">
<path fill-rule="evenodd" clip-rule="evenodd" d="M3 31.875C2.37868 31.875 1.875 32.3787 1.875 33C1.875 33.6213 2.37868 34.125 3 34.125H33C33.6213 34.125 34.125 33.6213 34.125 33C34.125 32.3787 33.6213 31.875 33 31.875H31.5H27.75H25.5V24C25.5 21.1716 25.5 19.7574 24.6213 18.8787C23.7426 18 22.3284 18 19.5 18H16.5C13.6716 18 12.2574 18 11.3787 18.8787C10.5 19.7574 10.5 21.1716 10.5 24V31.875H8.25H4.5H3ZM13.875 22.5C13.875 21.8787 14.3787 21.375 15 21.375H21C21.6213 21.375 22.125 21.8787 22.125 22.5C22.125 23.1213 21.6213 23.625 21 23.625H15C14.3787 23.625 13.875 23.1213 13.875 22.5ZM13.875 27C13.875 26.3787 14.3787 25.875 15 25.875H21C21.6213 25.875 22.125 26.3787 22.125 27C22.125 27.6213 21.6213 28.125 21 28.125H15C14.3787 28.125 13.875 27.6213 13.875 27Z" fill="black" fill-opacity="0.7"/>
<g opacity="0.5">
<path d="M12 6.75C13.4142 6.75 14.1213 6.75 14.5607 7.18934C15 7.62868 15 8.33579 15 9.75L15 12.4386C15.2352 12.5529 15.4397 12.697 15.6213 12.8787C16.2274 13.4848 16.4155 14.3458 16.4738 15.75V18C13.6628 18 12.2546 18.0027 11.3787 18.8787C10.5 19.7574 10.5 21.1716 10.5 24V31.875H4.5V18C4.5 15.1716 4.5 13.7574 5.37868 12.8787C5.56032 12.697 5.76484 12.553 6 12.4386V9.75C6 8.33579 6 7.62868 6.43934 7.18934C6.87868 6.75 7.58579 6.75 9 6.75H9.375V4.5C9.375 3.87868 9.87868 3.375 10.5 3.375C11.1213 3.375 11.625 3.87868 11.625 4.5V6.75H12Z" fill="black" fill-opacity="0.7"/>
<path d="M30.9658 7.87013C30.4316 7.09925 29.49 6.74615 27.6068 6.03995C23.9239 4.65887 22.0824 3.96833 20.7912 4.86314C19.5 5.75796 19.5 7.72461 19.5 11.6579V18C22.3284 18 23.7426 18 24.6213 18.8787C25.5 19.7574 25.5 21.1716 25.5 24V31.875H31.5V11.6579C31.5 9.64665 31.5 8.64102 30.9658 7.87013Z" fill="black" fill-opacity="0.7"/>
</g>
</svg>
