<svg width="242" height="133" viewBox="0 0 242 133" fill="none" xmlns="http://www.w3.org/2000/svg">
<g clip-path="url(#clip0_27_2936)">
<path d="M217.892 96.8105C218.444 94.6992 219.52 93.0472 220.071 90.9359C209.968 102.473 199.339 113.55 184.098 117.622C162.259 123.513 143.065 108.186 133.657 89.939C128.101 79.1427 124.972 67.6919 120.859 56.3061C117.702 47.4258 112.386 28.3147 99.5062 30.7482C94.1287 31.5983 89.1693 35.7797 85.0496 39.2139C80.169 43.0938 75.734 47.7345 71.0762 51.9947C64.2009 58.5753 56.1843 65.8243 46.2689 66.7771C34.7666 67.6374 25.8657 58.5446 21.201 49.2702C15.8679 38.8544 14.0239 27.4172 16.4162 15.7984C16.968 13.6871 20.4433 13.951 20.1932 16.1411C19.7031 26.646 21.4031 37.4012 26.7499 46.5317C32.2406 56.3442 42.2828 64.7687 53.4732 57.7048C62.3809 51.9776 68.982 42.7476 76.697 35.4199C83.4147 29.4425 91.7329 22.2724 101.11 22.1455C122.134 21.8404 127.707 52.2961 132.762 67.4725C139.141 86.2168 151.037 112.203 174.71 111.624C186.356 111.446 196.262 104.368 204.737 96.5946C210.235 91.5872 215.51 86.1993 220.706 81.1131C218.581 81.8465 216.456 82.58 214.029 83.2346C210.619 83.9544 207.801 78.7071 211.448 77.0825C217.981 74.2789 224.434 71.7769 230.665 68.8944C234.693 67.047 238.809 71.0228 236.8 75.0088C232.705 83.2825 229.514 91.7927 225.117 99.9876C223.108 103.974 216.027 101.479 217.59 96.7317L217.892 96.8105Z" fill="white"/>
</g>
<defs>
<clipPath id="clip0_27_2936">
<rect width="228.506" height="77" fill="white" transform="matrix(0.967502 0.252865 0.252865 -0.967502 0.978516 74.8574)"/>
</clipPath>
</defs>
</svg>
