<svg width="121" height="104" viewBox="0 0 121 104" fill="none" xmlns="http://www.w3.org/2000/svg">
<g clip-path="url(#clip0_27_3301)">
<path d="M104.329 80.9268C103.658 81.8486 103.347 82.8303 102.677 83.7521C103.993 75.8509 104.95 67.8898 101.55 60.3839C96.7012 49.6099 84.155 46.9289 73.6681 49.1681C67.467 50.4973 61.8046 53.0235 55.843 55.1308C51.2101 56.795 41.7289 60.9736 38.4485 54.9641C37.0118 52.51 37.0595 49.1221 37.0833 46.3208C37.0352 43.0645 37.4421 39.7365 37.6215 36.4443C38.0043 31.4881 38.2794 25.8496 35.3821 21.528C31.9221 16.596 25.3019 16.0097 20.0105 17.1951C14.0369 18.4884 8.80551 21.5294 4.90307 26.3421C4.23271 27.2639 5.48978 28.5807 6.29183 27.7546C10.3739 24.0792 15.282 21.2058 20.741 20.3436C26.5231 19.3138 33.2511 20.5824 34.1014 27.442C34.7362 32.9368 33.1922 38.6592 32.7854 44.202C32.5941 48.8948 32.4508 54.6292 35.5037 58.4599C42.3398 67.055 56.4896 59.225 64.2948 56.2437C73.9795 52.6159 88.4169 48.8202 96.0192 58.5765C99.8025 63.341 100.222 69.6858 99.8869 75.6835C99.6836 79.5622 99.2528 83.4769 98.9178 87.2599C98.5107 86.1586 98.1036 85.0572 97.5648 83.8601C96.7268 82.244 93.6741 82.8427 94.2249 84.8539C95.2546 88.4213 96.3801 91.8571 97.2781 95.3287C97.8648 97.5674 100.834 97.9144 101.779 95.7834C103.766 91.3898 106.149 87.2835 108.004 82.7941C108.95 80.6631 105.597 78.6282 104.197 80.831L104.329 80.9268Z" fill="white"/>
</g>
<defs>
<clipPath id="clip0_27_3301">
<rect width="119.354" height="40.2188" fill="white" transform="translate(23.6543 0.552734) rotate(36.0245)"/>
</clipPath>
</defs>
</svg>
