<svg width="538" height="685" viewBox="0 0 538 685" fill="none" xmlns="http://www.w3.org/2000/svg">
<path d="M538 269.029C538 120.815 417.194 0 269.083 0C120.64 0 0 120.815 0 269.029V411.63C0 413.116 0 414.436 0 415.922C0 564.96 119.978 684.95 268.917 684.95C417.856 684.95 537.835 564.135 537.835 415.922V273.32C538 271.834 538 270.514 538 269.029ZM470.15 343.135C467.337 345.941 463.862 348.747 459.559 351.553C458.07 352.213 457.408 353.038 456.084 353.698C453.932 355.184 451.781 356.504 449.795 357.164C444.169 359.97 437.715 362.776 431.426 365.582C422.324 368.388 411.733 370.533 400.314 370.533C388.234 370.533 378.47 369.048 371.354 367.727C363.576 365.582 357.95 361.456 354.474 355.679C350.999 349.902 349.51 342.31 349.51 331.747V273.155C349.51 197.563 329.817 141.776 221.091 141.776V108.107C213.148 134.844 148.939 176.602 148.939 176.602C148.939 176.602 213.81 218.194 220.926 245.097V211.262C258.988 211.262 281.66 218.359 281.66 274.805V339.009C281.66 353.863 283.811 366.572 288.776 376.475C293.74 386.378 300.029 394.135 309.296 399.747C317.736 405.358 327.665 409.65 338.918 412.456C350.172 415.261 361.59 416.747 374.167 416.747C386.744 416.747 398.163 415.261 408.092 412.456C409.582 411.795 410.906 411.795 412.395 410.97C420.835 408.164 428.613 404.533 435.067 401.067C442.845 396.116 449.961 391.164 454.76 385.553C459.062 381.261 461.876 377.135 464.689 373.504C465.351 372.019 466.84 370.698 467.502 369.213C468.164 367.727 468.992 366.407 469.654 364.922V417.242C469.654 528.154 379.297 618.436 268.421 618.436C157.379 618.601 67.0225 528.154 67.0225 417.407C67.0225 415.922 67.0225 414.601 67.0225 413.116V412.456V336.203C69.8357 334.718 72.649 333.397 76.9517 331.912C78.4411 331.252 79.103 331.252 80.4269 330.427C82.5783 329.766 85.3916 328.941 88.2049 328.281C93.1695 326.795 98.1341 326.135 103.099 324.815C111.539 323.329 119.978 322.009 129.246 322.009C144.802 322.009 156.717 323.495 165.322 326.3C173.762 329.106 180.216 333.397 183.691 339.009C187.166 344.621 188.656 351.718 188.656 360.135V411.63C188.656 487.222 208.349 543.009 317.074 543.009V576.844C324.852 549.941 389.061 508.349 389.061 508.349C389.061 508.349 324.19 467.417 317.074 441.339V475.999C279.012 475.999 256.34 468.902 256.34 412.456V331.912C256.34 319.863 253.527 309.961 249.224 301.543C244.26 293.126 237.971 287.349 229.531 282.398C221.753 277.446 211.824 273.98 202.06 271.834C191.469 269.689 180.878 269.029 169.625 269.029C152.745 269.029 137.851 271.174 125.109 275.465C124.447 275.631 123.95 275.796 123.619 275.961C110.877 280.252 100.285 286.029 91.8456 292.465C83.4057 298.902 76.9517 304.514 72.1526 310.786C70.6632 312.931 69.3393 315.077 67.8499 316.397V269.854C67.8499 257.805 69.3393 245.922 71.3251 234.534C88.2049 140.456 170.121 68.495 269.579 68.495C368.375 68.495 449.63 140.456 466.509 234.368C468.661 245.592 469.985 257.64 469.985 269.689L470.15 343.135Z" fill="white"/>
</svg>
