<svg width="101" height="100" viewBox="0 0 101 100" fill="none" xmlns="http://www.w3.org/2000/svg">
<path d="M86.5831 91.4521C80.1954 92.3332 73.5875 90.1306 67.4201 88.5887C60.5919 86.8266 53.5434 85.0645 46.4949 84.4037C35.0412 83.0821 24.4685 84.8442 14.7769 90.1306C16.9795 89.69 19.4024 89.2495 21.6051 89.2495C24.2483 89.2495 25.1293 93.4345 22.2659 94.0953C16.0985 95.1966 10.3716 96.9587 4.64473 99.6019C1.56103 101.144 -1.08215 97.6195 1.1205 94.9764C5.96632 89.4698 9.49055 82.8618 12.1337 76.2539C13.6756 72.0689 19.6227 74.4918 17.8606 78.6768C16.9795 80.8794 15.6579 82.8618 14.5566 84.8442C20.724 81.32 27.9927 79.5579 35.0412 78.8971C49.3584 78.016 63.0148 82.4213 76.6712 85.2847C82.8386 86.6063 91.8694 87.0469 94.072 79.5579C95.8342 73.1702 93.4112 65.6812 90.7681 59.9543C84.8209 47.3993 74.2483 37.9279 67.6403 25.8134C64.5566 20.0865 61.9135 12.5975 65.4377 6.20985C67.6403 1.80457 72.9267 -1.27913 77.9927 0.703246C79.3143 1.14377 79.3143 3.56668 77.5522 3.34642C70.0632 2.68563 67.6403 11.0557 69.4024 16.7825C71.3848 23.3905 76.2306 28.8971 80.1954 34.4037C87.6844 44.3156 96.0544 54.4477 98.9179 67.0028C100.239 72.5094 100.68 78.6768 98.0368 83.7429C95.6139 88.1482 90.9883 90.7914 86.1425 91.4521H86.5831Z" fill="#FCE600"/>
</svg>
