<svg width="24" height="25" viewBox="0 0 24 25" fill="none" xmlns="http://www.w3.org/2000/svg">
<path fill-rule="evenodd" clip-rule="evenodd" d="M3.98847 3.56006L11.0595 10.6311L8.23111 13.4596L3.98847 9.21691C2.42637 7.65482 2.42637 5.12216 3.98847 3.56006Z" fill="white"/>
<path fill-rule="evenodd" clip-rule="evenodd" d="M17.7541 4.4073L14.8887 7.90941C14.709 8.12909 14.7249 8.44924 14.9256 8.64994C15.1263 8.85065 15.4465 8.86662 15.6662 8.68688L19.1683 5.82152L19.8754 6.52862L17.01 10.0307C16.8303 10.2504 16.8462 10.5706 17.047 10.7713C17.2477 10.972 17.5678 10.9879 17.7875 10.8082L21.2896 7.94284L21.9967 8.64994L18.8147 11.8319C17.4479 13.1988 15.2318 13.1988 13.865 11.8319C12.4981 10.4651 12.4981 8.24901 13.865 6.88218L17.047 3.7002L17.7541 4.4073Z" fill="white"/>
<path opacity="0.3" fill-rule="evenodd" clip-rule="evenodd" d="M11.0754 14.4248C11.4716 14.8209 11.4877 15.4581 11.112 15.8737L6.14189 21.3726C5.61375 21.9569 4.71191 22.0025 4.12758 21.4743C4.10978 21.4583 4.09239 21.4417 4.07542 21.4248C3.51848 20.8678 3.51848 19.9648 4.07542 19.4079C4.09239 19.3909 4.10978 19.3744 4.12758 19.3583L9.62644 14.3882C10.0421 14.0125 10.6793 14.0286 11.0754 14.4248Z" fill="white"/>
<path opacity="0.3" fill-rule="evenodd" clip-rule="evenodd" d="M13.0756 14.4248C13.4718 14.0286 14.109 14.0125 14.5246 14.3882L20.0235 19.3583C20.0413 19.3744 20.0587 19.3909 20.0756 19.4079C20.6326 19.9648 20.6326 20.8678 20.0756 21.4248C20.0587 21.4417 20.0413 21.4583 20.0235 21.4743C19.4392 22.0025 18.5373 21.9569 18.0092 21.3726L13.0391 15.8737C12.6634 15.4581 12.6795 14.8209 13.0756 14.4248Z" fill="white"/>
</svg>
