<svg width="119" height="55" viewBox="0 0 119 55" fill="none" xmlns="http://www.w3.org/2000/svg">
<g clip-path="url(#clip0_2040_4225)">
<path d="M62.8354 21.6024C62.8354 9.7012 53.1349 0 41.2419 0C29.3223 0 19.6351 9.7012 19.6351 21.6024V33.053C19.6351 33.1723 19.6351 33.2783 19.6351 33.3976C19.6351 45.3651 29.2691 55 41.2286 55C53.1881 55 62.8221 45.2988 62.8221 33.3976V21.947C62.8354 21.8277 62.8354 21.7217 62.8354 21.6024ZM57.3872 27.553C57.1613 27.7783 56.8822 28.0036 56.5367 28.2289C56.4171 28.2819 56.364 28.3482 56.2577 28.4012C56.0849 28.5205 55.9122 28.6265 55.7527 28.6795C55.3009 28.9048 54.7827 29.1301 54.2777 29.3554C53.5468 29.5807 52.6964 29.753 51.7795 29.753C50.8095 29.753 50.0254 29.6337 49.454 29.5277C48.8295 29.3554 48.3777 29.0241 48.0986 28.5602C47.8196 28.0964 47.7 27.4867 47.7 26.6386V21.9337C47.7 15.8639 46.1187 11.3843 37.3883 11.3843V8.68072C36.7504 10.8277 31.5946 14.1807 31.5946 14.1807C31.5946 14.1807 36.8036 17.5205 37.375 19.6807V16.9639C40.4313 16.9639 42.2518 17.5337 42.2518 22.0663V27.2217C42.2518 28.4145 42.4245 29.4349 42.8232 30.2301C43.2218 31.0253 43.7268 31.6482 44.4709 32.0988C45.1486 32.5494 45.9459 32.894 46.8495 33.1193C47.7531 33.3446 48.67 33.4639 49.68 33.4639C50.6899 33.4639 51.6068 33.3446 52.404 33.1193C52.5236 33.0663 52.63 33.0663 52.7495 33C53.4272 32.7747 54.0518 32.4831 54.57 32.2048C55.1946 31.8072 55.766 31.4096 56.1513 30.959C56.4968 30.6145 56.7227 30.2831 56.9486 29.9916C57.0018 29.8723 57.1214 29.7663 57.1745 29.647C57.2277 29.5277 57.2941 29.4217 57.3473 29.3024V33.5036C57.3473 42.4096 50.0919 49.659 41.1887 49.659C32.2723 49.6723 25.0169 42.4096 25.0169 33.5169C25.0169 33.3976 25.0169 33.2916 25.0169 33.1723V33.1193V26.9964C25.2428 26.8771 25.4687 26.7711 25.8142 26.6518C25.9338 26.5988 25.9869 26.5988 26.0932 26.5325C26.266 26.4795 26.4919 26.4133 26.7178 26.3602C27.1164 26.241 27.5151 26.188 27.9137 26.0819C28.5914 25.9627 29.2691 25.8566 30.0133 25.8566C31.2624 25.8566 32.2191 25.9759 32.9101 26.2012C33.5878 26.4265 34.1061 26.7711 34.3851 27.2217C34.6642 27.6723 34.7838 28.2422 34.7838 28.9181V33.053C34.7838 39.1229 36.3651 43.6024 45.0955 43.6024V46.3193C45.72 44.159 50.8759 40.8193 50.8759 40.8193C50.8759 40.8193 45.6669 37.5325 45.0955 35.4386V38.2217C42.0392 38.2217 40.2187 37.6518 40.2187 33.1193V26.6518C40.2187 25.6843 39.9928 24.8892 39.6473 24.2133C39.2486 23.5373 38.7437 23.0735 38.066 22.6759C37.4414 22.2783 36.6441 22 35.8601 21.8277C35.0097 21.6554 34.1592 21.6024 33.2556 21.6024C31.9002 21.6024 30.7043 21.7747 29.6811 22.1193C29.6279 22.1325 29.5881 22.1458 29.5615 22.159C28.5383 22.5036 27.6878 22.9675 27.0101 23.4843C26.3324 24.0012 25.8142 24.4518 25.4288 24.9554C25.3092 25.1277 25.2029 25.3 25.0833 25.406V21.6687C25.0833 20.7012 25.2029 19.747 25.3624 18.8325C26.7178 11.2783 33.2955 5.5 41.2818 5.5C49.2149 5.5 55.7394 11.2783 57.0948 18.8193C57.2676 19.7205 57.3739 20.688 57.3739 21.6554L57.3872 27.553Z" fill="url(#paint0_radial_2040_4225)"/>
<path d="M17.0041 27.5397C16.6054 26.9726 15.9277 26.5241 14.9709 26.1812C14.0275 25.8383 12.7252 25.6141 11.0775 25.5217L7.99459 25.3107C7.3036 25.258 6.83851 25.1788 6.58604 25.0469C6.34685 24.9018 6.22725 24.704 6.22725 24.427C6.22725 24.0973 6.42658 23.8335 6.82522 23.6489C7.22387 23.4642 7.82185 23.3587 8.61914 23.3587C9.27027 23.3587 9.81509 23.4246 10.2403 23.5697C10.6655 23.7016 11.011 23.8731 11.2635 24.1105C11.516 24.3347 11.6887 24.5985 11.7685 24.8887H17.323C17.2167 23.939 16.7782 23.1081 16.034 22.3959C15.3032 21.6705 14.3198 21.1033 13.0973 20.7076C11.8748 20.3119 10.4662 20.1141 8.88491 20.1141C7.27703 20.1141 5.86847 20.2856 4.67252 20.6417C3.47658 20.9714 2.5464 21.4858 1.86869 22.1848C1.20428 22.8839 0.858784 23.7544 0.858784 24.7963C0.858784 25.5877 1.0714 26.2735 1.50991 26.8671C1.93514 27.4342 2.6527 27.8958 3.63604 28.2388C4.61937 28.5817 5.96149 28.8191 7.63581 28.9246L9.96126 29.0961C10.8117 29.162 11.4097 29.2675 11.7552 29.3994C12.1273 29.5313 12.3 29.7423 12.3 30.0457C12.3 30.3886 12.0741 30.6656 11.609 30.8503C11.1572 31.0217 10.5061 31.114 9.64234 31.114C8.93806 31.114 8.34009 31.0481 7.84842 30.9294C7.37004 30.7975 6.98468 30.626 6.67905 30.3886C6.37342 30.1512 6.1741 29.8611 6.0545 29.5313H0.5C0.553153 30.5337 0.938514 31.4042 1.66937 32.1692C2.41351 32.9342 3.45 33.5145 4.75225 33.9234C6.08108 34.3323 7.60923 34.5433 9.35 34.5433C11.0376 34.5433 12.4993 34.3586 13.7218 34.0025C14.9709 33.6332 15.9277 33.0924 16.5921 32.367C17.2831 31.6284 17.6153 30.7052 17.6153 29.6105C17.6286 28.8059 17.416 28.1069 17.0041 27.5397Z" fill="black"/>
<path d="M73.5729 20.2328C73.9449 19.8899 74.6359 19.7052 75.6724 19.7052C76.2305 19.7052 76.7621 19.7448 77.2537 19.8239C77.7454 19.9031 78.2371 20.0086 78.742 20.1537V16.21C78.0909 16.0386 77.4796 15.9067 76.8949 15.8275C76.3368 15.7352 75.7123 15.6825 75.0346 15.6825C73.4267 15.6825 72.058 15.9331 70.9418 16.4211C69.8256 16.8959 68.9751 17.6081 68.4037 18.5577C67.8456 19.481 67.5533 20.6021 67.54 21.9474H64.7893V25.9306H67.54V34.3586H73.0148V25.9306H78.3699V21.9474H73.0148V21.776C73.0148 21.0769 73.2008 20.5625 73.5729 20.2328Z" fill="black"/>
<path d="M89.4259 15.6561C87.8579 15.6561 86.5423 15.9067 85.4527 16.3947C84.3896 16.8695 83.5657 17.5686 83.0076 18.505C82.4495 19.4283 82.1838 20.5625 82.1705 21.9211H79.4198V25.9042H82.1705V34.3323H87.6453V25.9042H92.3759V21.9211H87.6453V21.5122C87.6453 20.8659 87.8313 20.3911 88.1901 20.1141C88.5621 19.8108 89.1867 19.6657 90.077 19.6657C90.5421 19.6657 90.9806 19.7052 91.3926 19.7844C91.8045 19.8635 92.2164 19.969 92.6151 20.1141V16.1705C92.0835 15.999 91.5653 15.8671 91.0603 15.788C90.582 15.6957 90.0371 15.6561 89.4259 15.6561Z" fill="black"/>
<path d="M100.083 16.0518H94.6083V34.3323H100.083V16.0518Z" fill="black"/>
<path d="M112.335 30.9822C111.245 30.9822 110.342 30.8371 109.611 30.5601C108.88 30.2568 108.322 29.8347 107.963 29.2807C107.857 29.1225 107.777 28.9378 107.697 28.7532H118.487C118.487 27.0385 118.169 25.5613 117.531 24.2952C116.906 23.029 116.003 22.053 114.833 21.3803C113.651 20.6813 112.229 20.3383 110.554 20.3383C108.96 20.3383 107.511 20.6417 106.222 21.2352C104.947 21.8156 103.937 22.6465 103.179 23.728C102.448 24.8095 102.076 26.0493 102.076 27.4738C102.076 28.9246 102.462 30.204 103.219 31.2987C103.99 32.3934 105.026 33.2376 106.355 33.8443C107.684 34.451 109.186 34.7411 110.873 34.7411C112.176 34.7411 113.478 34.5565 114.753 34.2004C116.029 33.8179 117.159 33.2771 118.129 32.5913V29.4126C117.305 29.9402 116.388 30.3359 115.378 30.5997C114.395 30.8503 113.371 30.9822 112.335 30.9822ZM108.867 24.3215C109.345 24.0314 109.917 23.8995 110.594 23.8995C111.205 23.8995 111.724 24.0182 112.149 24.2556C112.601 24.493 112.946 24.8359 113.199 25.2976C113.345 25.5218 113.451 25.7856 113.544 26.0757H107.591C107.644 25.8779 107.711 25.6932 107.804 25.5086C108.056 24.9942 108.415 24.5985 108.867 24.3215Z" fill="black"/>
</g>
<defs>
<radialGradient id="paint0_radial_2040_4225" cx="0" cy="0" r="1" gradientUnits="userSpaceOnUse" gradientTransform="translate(19.5652 10.8027) rotate(45.6148) scale(61.8466 99.6658)">
<stop stop-color="#E32900"/>
<stop offset="0.6017" stop-color="#C6E216"/>
<stop offset="1" stop-color="#D808FA"/>
</radialGradient>
<clipPath id="clip0_2040_4225">
<rect width="118" height="55" fill="white" transform="translate(0.5)"/>
</clipPath>
</defs>
</svg>
