<svg width="118" height="55" viewBox="0 0 118 55" fill="none" xmlns="http://www.w3.org/2000/svg">
<g clip-path="url(#clip0_2001_6235)">
<path d="M62.3355 21.6024C62.3355 9.7012 52.635 0 40.742 0C28.8224 0 19.1353 9.7012 19.1353 21.6024V33.053C19.1353 33.1723 19.1353 33.2783 19.1353 33.3976C19.1353 45.3651 28.7693 55 40.7287 55C52.6882 55 62.3222 45.2988 62.3222 33.3976V21.947C62.3355 21.8277 62.3355 21.7217 62.3355 21.6024ZM56.8873 27.553C56.6614 27.7783 56.3823 28.0036 56.0368 28.2289C55.9172 28.2819 55.8641 28.3482 55.7578 28.4012C55.585 28.5205 55.4123 28.6265 55.2528 28.6795C54.801 28.9048 54.2828 29.1301 53.7778 29.3554C53.047 29.5807 52.1965 29.753 51.2796 29.753C50.3096 29.753 49.5256 29.6337 48.9542 29.5277C48.3296 29.3554 47.8778 29.0241 47.5988 28.5602C47.3197 28.0964 47.2001 27.4867 47.2001 26.6386V21.9337C47.2001 15.8639 45.6188 11.3843 36.8884 11.3843V8.68072C36.2506 10.8277 31.0947 14.1807 31.0947 14.1807C31.0947 14.1807 36.3037 17.5205 36.8751 19.6807V16.9639C39.9314 16.9639 41.7519 17.5337 41.7519 22.0663V27.2217C41.7519 28.4145 41.9247 29.4349 42.3233 30.2301C42.722 31.0253 43.2269 31.6482 43.9711 32.0988C44.6488 32.5494 45.4461 32.894 46.3497 33.1193C47.2533 33.3446 48.1702 33.4639 49.1801 33.4639C50.19 33.4639 51.1069 33.3446 51.9042 33.1193C52.0238 33.0663 52.1301 33.0663 52.2497 33C52.9274 32.7747 53.5519 32.4831 54.0702 32.2048C54.6947 31.8072 55.2661 31.4096 55.6515 30.959C55.997 30.6145 56.2229 30.2831 56.4488 29.9916C56.5019 29.8723 56.6215 29.7663 56.6747 29.647C56.7278 29.5277 56.7943 29.4217 56.8474 29.3024V33.5036C56.8474 42.4096 49.592 49.659 40.6889 49.659C31.7724 49.6723 24.517 42.4096 24.517 33.5169C24.517 33.3976 24.517 33.2916 24.517 33.1723V33.1193V26.9964C24.7429 26.8771 24.9688 26.7711 25.3143 26.6518C25.4339 26.5988 25.4871 26.5988 25.5934 26.5325C25.7661 26.4795 25.992 26.4133 26.2179 26.3602C26.6166 26.241 27.0152 26.188 27.4139 26.0819C28.0916 25.9627 28.7693 25.8566 29.5134 25.8566C30.7625 25.8566 31.7193 25.9759 32.4103 26.2012C33.088 26.4265 33.6062 26.7711 33.8853 27.2217C34.1643 27.6723 34.2839 28.2422 34.2839 28.9181V33.053C34.2839 39.1229 35.8652 43.6024 44.5956 43.6024V46.3193C45.2202 44.159 50.376 40.8193 50.376 40.8193C50.376 40.8193 45.167 37.5325 44.5956 35.4386V38.2217C41.5393 38.2217 39.7188 37.6518 39.7188 33.1193V26.6518C39.7188 25.6843 39.4929 24.8892 39.1474 24.2133C38.7488 23.5373 38.2438 23.0735 37.5661 22.6759C36.9416 22.2783 36.1443 22 35.3603 21.8277C34.5098 21.6554 33.6594 21.6024 32.7557 21.6024C31.4003 21.6024 30.2044 21.7747 29.1812 22.1193C29.128 22.1325 29.0882 22.1458 29.0616 22.159C28.0384 22.5036 27.188 22.9675 26.5103 23.4843C25.8326 24.0012 25.3143 24.4518 24.9289 24.9554C24.8094 25.1277 24.703 25.3 24.5835 25.406V21.6687C24.5835 20.7012 24.703 19.747 24.8625 18.8325C26.2179 11.2783 32.7956 5.5 40.7819 5.5C48.715 5.5 55.2395 11.2783 56.5949 18.8193C56.7677 19.7205 56.874 20.688 56.874 21.6554L56.8873 27.553Z" fill="url(#paint0_radial_2001_6235)"/>
<path d="M16.5041 27.5397C16.1054 26.9726 15.4277 26.5241 14.4709 26.1812C13.5275 25.8383 12.2252 25.6141 10.5775 25.5217L7.49459 25.3107C6.8036 25.258 6.33851 25.1788 6.08604 25.0469C5.84685 24.9018 5.72725 24.704 5.72725 24.427C5.72725 24.0973 5.92658 23.8335 6.32522 23.6489C6.72387 23.4642 7.32185 23.3587 8.11914 23.3587C8.77027 23.3587 9.31509 23.4246 9.74032 23.5697C10.1655 23.7016 10.511 23.8731 10.7635 24.1105C11.016 24.3347 11.1887 24.5985 11.2685 24.8887H16.823C16.7167 23.939 16.2782 23.1081 15.534 22.3959C14.8032 21.6705 13.8198 21.1033 12.5973 20.7076C11.3748 20.3119 9.96622 20.1141 8.38491 20.1141C6.77703 20.1141 5.36847 20.2856 4.17252 20.6417C2.97658 20.9714 2.0464 21.4858 1.36869 22.1848C0.704279 22.8839 0.358784 23.7544 0.358784 24.7963C0.358784 25.5877 0.571396 26.2735 1.00991 26.8671C1.43514 27.4342 2.1527 27.8958 3.13604 28.2388C4.11937 28.5817 5.46149 28.8191 7.13581 28.9246L9.46126 29.0961C10.3117 29.162 10.9097 29.2675 11.2552 29.3994C11.6273 29.5313 11.8 29.7423 11.8 30.0457C11.8 30.3886 11.5741 30.6656 11.109 30.8503C10.6572 31.0217 10.0061 31.114 9.14234 31.114C8.43806 31.114 7.84009 31.0481 7.34842 30.9294C6.87004 30.7975 6.48468 30.626 6.17905 30.3886C5.87342 30.1512 5.6741 29.8611 5.5545 29.5313H0C0.0531532 30.5337 0.438514 31.4042 1.16937 32.1692C1.91351 32.9342 2.95 33.5145 4.25225 33.9234C5.58108 34.3323 7.10923 34.5433 8.85 34.5433C10.5376 34.5433 11.9993 34.3586 13.2218 34.0025C14.4709 33.6332 15.4277 33.0924 16.0921 32.367C16.7831 31.6284 17.1153 30.7052 17.1153 29.6105C17.1286 28.8059 16.916 28.1069 16.5041 27.5397Z" fill="white"/>
<path d="M73.0729 20.2328C73.4449 19.8899 74.1359 19.7052 75.1724 19.7052C75.7305 19.7052 76.2621 19.7448 76.7537 19.8239C77.2454 19.9031 77.7371 20.0086 78.242 20.1537V16.21C77.5909 16.0386 76.9796 15.9067 76.3949 15.8275C75.8368 15.7352 75.2123 15.6825 74.5346 15.6825C72.9267 15.6825 71.558 15.9331 70.4418 16.4211C69.3256 16.8959 68.4751 17.6081 67.9037 18.5577C67.3456 19.481 67.0533 20.6021 67.04 21.9474H64.2893V25.9306H67.04V34.3586H72.5148V25.9306H77.8699V21.9474H72.5148V21.776C72.5148 21.0769 72.7008 20.5625 73.0729 20.2328Z" fill="white"/>
<path d="M88.926 15.6561C87.358 15.6561 86.0424 15.9067 84.9528 16.3947C83.8897 16.8695 83.0659 17.5686 82.5078 18.505C81.9497 19.4283 81.6839 20.5625 81.6706 21.9211H78.9199V25.9042H81.6706V34.3323H87.1454V25.9042H91.876V21.9211H87.1454V21.5122C87.1454 20.8659 87.3314 20.3911 87.6902 20.1141C88.0623 19.8108 88.6868 19.6657 89.5771 19.6657C90.0422 19.6657 90.4807 19.7052 90.8927 19.7844C91.3046 19.8635 91.7165 19.969 92.1152 20.1141V16.1705C91.5837 15.999 91.0654 15.8671 90.5605 15.788C90.0821 15.6957 89.5373 15.6561 88.926 15.6561Z" fill="white"/>
<path d="M99.5832 16.0518H94.1084V34.3323H99.5832V16.0518Z" fill="white"/>
<path d="M111.835 30.9822C110.745 30.9822 109.842 30.8371 109.111 30.5601C108.38 30.2567 107.822 29.8347 107.463 29.2807C107.357 29.1225 107.277 28.9378 107.197 28.7532H117.987C117.987 27.0385 117.669 25.5613 117.031 24.2952C116.406 23.029 115.503 22.053 114.333 21.3803C113.151 20.6813 111.729 20.3383 110.054 20.3383C108.46 20.3383 107.011 20.6417 105.722 21.2352C104.447 21.8156 103.437 22.6465 102.679 23.728C101.948 24.8095 101.576 26.0493 101.576 27.4738C101.576 28.9246 101.962 30.204 102.719 31.2987C103.49 32.3934 104.526 33.2375 105.855 33.8443C107.184 34.451 108.686 34.7411 110.373 34.7411C111.676 34.7411 112.978 34.5565 114.253 34.2004C115.529 33.8179 116.659 33.2771 117.629 32.5913V29.4126C116.805 29.9402 115.888 30.3359 114.878 30.5997C113.895 30.8503 112.871 30.9822 111.835 30.9822ZM108.367 24.3215C108.845 24.0314 109.417 23.8995 110.094 23.8995C110.705 23.8995 111.224 24.0182 111.649 24.2556C112.101 24.493 112.446 24.8359 112.699 25.2975C112.845 25.5218 112.951 25.7856 113.044 26.0757H107.091C107.144 25.8779 107.211 25.6932 107.304 25.5086C107.556 24.9942 107.915 24.5985 108.367 24.3215Z" fill="white"/>
</g>
<defs>
<radialGradient id="paint0_radial_2001_6235" cx="0" cy="0" r="1" gradientUnits="userSpaceOnUse" gradientTransform="translate(19.0653 10.8027) rotate(45.6148) scale(61.8466 99.6658)">
<stop stop-color="#E32900"/>
<stop offset="0.6017" stop-color="#C6E216"/>
<stop offset="1" stop-color="#D808FA"/>
</radialGradient>
<clipPath id="clip0_2001_6235">
<rect width="118" height="55" fill="white"/>
</clipPath>
</defs>
</svg>
