<svg width="36" height="36" viewBox="0 0 36 36" fill="none" xmlns="http://www.w3.org/2000/svg">
<path opacity="0.5" d="M10.8675 3H25.1325C26.8708 3 27.7399 3 28.4409 3.24391C29.7702 3.70643 30.8138 4.78078 31.2631 6.14919C31.5 6.87082 31.5 7.76558 31.5 9.55509V30.5613C31.5 31.8486 30.0225 32.5317 29.0879 31.6764C28.5387 31.1739 27.7113 31.1739 27.1621 31.6764L26.4375 32.3395C25.4751 33.2202 24.0249 33.2202 23.0625 32.3395C22.1001 31.4589 20.6499 31.4589 19.6875 32.3395C18.7251 33.2202 17.2749 33.2202 16.3125 32.3395C15.3501 31.4589 13.8999 31.4589 12.9375 32.3395C11.9751 33.2202 10.5249 33.2202 9.5625 32.3395L8.83786 31.6764C8.28874 31.1739 7.46126 31.1739 6.91214 31.6764C5.9775 32.5317 4.5 31.8486 4.5 30.5613V9.55509C4.5 7.76558 4.5 6.87082 4.73693 6.14919C5.18622 4.78078 6.22983 3.70643 7.55908 3.24391C8.26006 3 9.12922 3 10.8675 3Z" fill="black"/>
<path d="M10.5 10.125C9.87868 10.125 9.375 10.6287 9.375 11.25C9.375 11.8713 9.87868 12.375 10.5 12.375H11.25C11.8713 12.375 12.375 11.8713 12.375 11.25C12.375 10.6287 11.8713 10.125 11.25 10.125H10.5Z" fill="black"/>
<path d="M15.75 10.125C15.1287 10.125 14.625 10.6287 14.625 11.25C14.625 11.8713 15.1287 12.375 15.75 12.375H25.5C26.1213 12.375 26.625 11.8713 26.625 11.25C26.625 10.6287 26.1213 10.125 25.5 10.125H15.75Z" fill="black"/>
<path d="M10.5 15.375C9.87868 15.375 9.375 15.8787 9.375 16.5C9.375 17.1213 9.87868 17.625 10.5 17.625H11.25C11.8713 17.625 12.375 17.1213 12.375 16.5C12.375 15.8787 11.8713 15.375 11.25 15.375H10.5Z" fill="black"/>
<path d="M15.75 15.375C15.1287 15.375 14.625 15.8787 14.625 16.5C14.625 17.1213 15.1287 17.625 15.75 17.625H25.5C26.1213 17.625 26.625 17.1213 26.625 16.5C26.625 15.8787 26.1213 15.375 25.5 15.375H15.75Z" fill="black"/>
<path d="M10.5 20.625C9.87868 20.625 9.375 21.1287 9.375 21.75C9.375 22.3713 9.87868 22.875 10.5 22.875H11.25C11.8713 22.875 12.375 22.3713 12.375 21.75C12.375 21.1287 11.8713 20.625 11.25 20.625H10.5Z" fill="black"/>
<path d="M15.75 20.625C15.1287 20.625 14.625 21.1287 14.625 21.75C14.625 22.3713 15.1287 22.875 15.75 22.875H25.5C26.1213 22.875 26.625 22.3713 26.625 21.75C26.625 21.1287 26.1213 20.625 25.5 20.625H15.75Z" fill="black"/>
</svg>
