<svg width="24" height="25" viewBox="0 0 24 25" fill="none" xmlns="http://www.w3.org/2000/svg">
<path fill-rule="evenodd" clip-rule="evenodd" d="M12.3741 20.4389L18.2227 11.666C18.4525 11.3213 18.3593 10.8557 18.0147 10.6259C17.8915 10.5438 17.7467 10.5 17.5987 10.5H13.0001V4.97705C13.0001 4.56284 12.6643 4.22705 12.2501 4.22705C11.9993 4.22705 11.7651 4.35238 11.626 4.56103L5.77741 13.3339C5.54764 13.6786 5.64078 14.1442 5.98542 14.374C6.10862 14.4561 6.25338 14.5 6.40145 14.5H11.0001V20.0229C11.0001 20.4371 11.3358 20.7729 11.7501 20.7729C12.0008 20.7729 12.235 20.6476 12.3741 20.4389Z" fill="white"/>
</svg>
