<svg width="24" height="25" viewBox="0 0 24 25" fill="none" xmlns="http://www.w3.org/2000/svg">
<path opacity="0.5" d="M22 12.5C22 18.0228 17.5228 22.5 12 22.5C6.47715 22.5 2 18.0228 2 12.5C2 6.97715 6.47715 2.5 12 2.5C17.5228 2.5 22 6.97715 22 12.5Z" fill="black"/>
<path d="M16.807 19.5112C15.4398 20.4504 13.7841 21 12 21C10.2159 21 8.56023 20.4503 7.193 19.5111C6.58915 19.0963 6.33109 18.3062 6.68219 17.6632C7.41001 16.3302 8.90973 15.5 12 15.5C15.0903 15.5 16.59 16.3303 17.3178 17.6632C17.6689 18.3062 17.4108 19.0964 16.807 19.5112Z" fill="black"/>
<path d="M12 12.5C13.6569 12.5 15 11.1569 15 9.5C15 7.84315 13.6569 6.5 12 6.5C10.3432 6.5 9.00004 7.84315 9.00004 9.5C9.00004 11.1569 10.3432 12.5 12 12.5Z" fill="black"/>
</svg>
