<svg width="37" height="37" viewBox="0 0 37 37" fill="none" xmlns="http://www.w3.org/2000/svg">
<path d="M28.0987 2.61082C28.4183 2.07804 29.1094 1.90528 29.6422 2.22494L29.0634 3.18962C29.6422 2.22494 29.6422 2.22494 29.6422 2.22494L29.6442 2.22619L29.6466 2.22762L29.6522 2.231L29.6665 2.23988C29.6776 2.24674 29.6914 2.2555 29.7079 2.26618C29.741 2.28753 29.7846 2.31659 29.8374 2.35353C29.9429 2.42736 30.0854 2.53312 30.2523 2.67225C30.5855 2.94988 31.0212 3.36463 31.4551 3.9287C32.3294 5.0653 33.1884 6.80064 33.1884 9.18962C33.1884 11.5786 32.3294 13.3139 31.4551 14.4505C31.0212 15.0146 30.5855 15.4294 30.2523 15.707C30.0854 15.8461 29.9429 15.9519 29.8374 16.0257C29.7846 16.0627 29.741 16.0917 29.7079 16.1131C29.6997 16.1184 29.6921 16.1232 29.6852 16.1276C29.6783 16.132 29.6721 16.1359 29.6665 16.1394L29.6522 16.1482L29.6466 16.1516L29.6442 16.1531C29.6442 16.1531 29.6422 16.1543 29.0634 15.1896L29.6422 16.1543C29.1094 16.474 28.4183 16.3012 28.0987 15.7684C27.7804 15.2379 27.9503 14.5504 28.4778 14.229L28.4861 14.2237C28.4971 14.2166 28.5179 14.2029 28.5471 14.1824C28.6057 14.1414 28.6976 14.0737 28.8119 13.9785C29.0412 13.7874 29.3556 13.4896 29.6717 13.0787C30.2973 12.2653 30.9384 11.0006 30.9384 9.18962C30.9384 7.3786 30.2973 6.11394 29.6717 5.30055C29.3556 4.88962 29.0412 4.59187 28.8119 4.40075C28.6976 4.3055 28.6057 4.23782 28.5471 4.19681C28.5179 4.17633 28.4971 4.16262 28.4861 4.15555L28.4778 4.15025C27.9503 3.82883 27.7804 3.14135 28.0987 2.61082Z" fill="#FC0F79"/>
<path d="M15.5634 15.1896C18.8771 15.1896 21.5634 12.5033 21.5634 9.18962C21.5634 5.87591 18.8771 3.18962 15.5634 3.18962C12.2496 3.18962 9.56335 5.87591 9.56335 9.18962C9.56335 12.5033 12.2496 15.1896 15.5634 15.1896Z" fill="#FC0F79"/>
<path d="M26.6422 5.22494C26.1094 4.90528 25.4183 5.07804 25.0987 5.61082L25.471 7.14606L25.4827 7.15403C25.5002 7.16634 25.5335 7.19066 25.5775 7.22731C25.6662 7.30124 25.7931 7.42087 25.9217 7.58805C26.1723 7.91394 26.4384 8.4286 26.4384 9.18962C26.4384 9.95064 26.1723 10.4653 25.9217 10.7912C25.7931 10.9584 25.6662 11.078 25.5775 11.1519C25.5335 11.1886 25.5002 11.2129 25.4827 11.2252L25.471 11.2332C24.9489 11.5564 24.7817 12.2402 25.0987 12.7684C25.4183 13.3012 26.1094 13.474 26.6422 13.1543L26.0634 12.1896C26.6422 13.1543 26.6422 13.1543 26.6422 13.1543L26.6442 13.1531L26.6463 13.1518L26.6511 13.1489L26.6622 13.142L26.6911 13.1237C26.7131 13.1094 26.7407 13.0911 26.773 13.0685C26.8374 13.0234 26.9213 12.961 27.0179 12.8804C27.2105 12.72 27.4587 12.4834 27.7051 12.163C28.2044 11.5139 28.6884 10.5286 28.6884 9.18962C28.6884 7.85064 28.2044 6.8653 27.7051 6.2162C27.4587 5.89588 27.2105 5.65926 27.0179 5.49881C26.9213 5.41827 26.8374 5.35588 26.773 5.31076C26.7407 5.28817 26.7131 5.2698 26.6911 5.25556L26.6622 5.23723L26.6511 5.23034L26.6463 5.22746L26.6442 5.22615C26.6442 5.22615 26.6422 5.22494 26.0634 6.18962L26.6422 5.22494Z" fill="#FC0F79"/>
<path opacity="0.5" d="M3.56335 26.4395C3.56335 30.1674 3.56335 33.1895 15.5634 33.1895C27.5634 33.1895 27.5634 30.1674 27.5634 26.4395C27.5634 22.7115 22.1908 19.6895 15.5634 19.6895C8.93594 19.6895 3.56335 22.7115 3.56335 26.4395Z" fill="#FC0F79"/>
</svg>
