<svg width="150" height="13" viewBox="0 0 150 13" fill="none" xmlns="http://www.w3.org/2000/svg">
<path d="M140.88 5.652V4.228L142.736 3.476L144.144 0.772003H146V3.236H149.84V5.652H146V8.34C146 9.00134 146.133 9.46534 146.4 9.732C146.667 9.99867 147.152 10.132 147.856 10.132C148.304 10.132 148.699 10.0947 149.04 10.02C149.392 9.93467 149.712 9.828 150 9.7V12.164C149.68 12.2813 149.259 12.388 148.736 12.484C148.213 12.58 147.675 12.628 147.12 12.628C146.107 12.628 145.275 12.4733 144.624 12.164C143.984 11.8547 143.509 11.412 143.2 10.836C142.891 10.2493 142.736 9.56667 142.736 8.788V5.652H140.88Z" fill="black"/>
<path d="M128.764 3.236H132.044L132.636 6.884V12.372H129.372V6.388L128.764 3.236ZM135.996 2.964C136.87 2.964 137.617 3.14 138.236 3.492C138.854 3.844 139.324 4.34 139.644 4.98C139.974 5.62 140.14 6.37734 140.14 7.252V12.372H136.876V7.732C136.876 7.04934 136.7 6.52667 136.348 6.164C136.006 5.80134 135.51 5.62 134.86 5.62C134.412 5.62 134.017 5.716 133.676 5.908C133.345 6.1 133.089 6.372 132.908 6.724C132.726 7.076 132.636 7.492 132.636 7.972L131.628 7.444C131.756 6.47334 132.028 5.65734 132.444 4.996C132.86 4.324 133.372 3.81734 133.98 3.476C134.588 3.13467 135.26 2.964 135.996 2.964Z" fill="black"/>
<path d="M120.694 12.628C119.841 12.628 119.11 12.452 118.502 12.1C117.905 11.748 117.446 11.252 117.126 10.612C116.806 9.96133 116.646 9.204 116.646 8.34V3.236H119.91V7.876C119.91 8.548 120.076 9.06533 120.406 9.428C120.737 9.79067 121.212 9.972 121.83 9.972C122.289 9.972 122.673 9.88133 122.982 9.7C123.292 9.508 123.532 9.236 123.702 8.884C123.873 8.532 123.958 8.11067 123.958 7.62L124.966 8.148C124.849 9.11867 124.582 9.94 124.166 10.612C123.761 11.2733 123.26 11.7747 122.662 12.116C122.065 12.4573 121.409 12.628 120.694 12.628ZM124.55 12.372L123.958 8.708V3.236H127.222V9.22L127.814 12.372H124.55Z" fill="black"/>
<path d="M109.526 12.628C108.353 12.628 107.329 12.4307 106.454 12.036C105.58 11.6307 104.897 11.0653 104.406 10.34C103.916 9.604 103.67 8.76134 103.67 7.812C103.67 6.84134 103.916 5.99334 104.406 5.268C104.897 4.54267 105.58 3.97734 106.454 3.572C107.329 3.16667 108.353 2.964 109.526 2.964C110.689 2.964 111.708 3.16667 112.582 3.572C113.468 3.97734 114.156 4.54267 114.646 5.268C115.137 5.99334 115.382 6.84134 115.382 7.812C115.382 8.76134 115.137 9.604 114.646 10.34C114.156 11.0653 113.468 11.6307 112.582 12.036C111.708 12.4307 110.689 12.628 109.526 12.628ZM109.526 10.212C110.06 10.212 110.513 10.116 110.886 9.924C111.27 9.732 111.564 9.45467 111.766 9.092C111.969 8.72934 112.07 8.30267 112.07 7.812C112.07 7.3 111.969 6.868 111.766 6.516C111.564 6.15334 111.27 5.876 110.886 5.684C110.513 5.492 110.06 5.396 109.526 5.396C108.993 5.396 108.534 5.492 108.15 5.684C107.766 5.876 107.473 6.15334 107.27 6.516C107.068 6.868 106.966 7.29467 106.966 7.796C106.966 8.29734 107.068 8.72934 107.27 9.092C107.473 9.45467 107.766 9.732 108.15 9.924C108.534 10.116 108.993 10.212 109.526 10.212Z" fill="black"/>
<path d="M102.795 8.516C102.71 9.33734 102.411 10.0573 101.899 10.676C101.387 11.2947 100.72 11.7747 99.8989 12.116C99.0882 12.4573 98.1762 12.628 97.1629 12.628C96.0429 12.628 95.0562 12.4253 94.2029 12.02C93.3496 11.6147 92.6829 11.0493 92.2029 10.324C91.7229 9.59867 91.4829 8.76134 91.4829 7.812C91.4829 6.852 91.7229 6.00934 92.2029 5.284C92.6829 4.55867 93.3496 3.99334 94.2029 3.588C95.0562 3.172 96.0429 2.964 97.1629 2.964C98.1762 2.964 99.0882 3.14 99.8989 3.492C100.72 3.83334 101.387 4.31334 101.899 4.932C102.411 5.54 102.71 6.26 102.795 7.092H99.5469C99.4296 6.548 99.1576 6.132 98.7309 5.844C98.3042 5.54534 97.7816 5.396 97.1629 5.396C96.6829 5.396 96.2616 5.492 95.8989 5.684C95.5469 5.86534 95.2696 6.13734 95.0669 6.5C94.8749 6.852 94.7789 7.28934 94.7789 7.812C94.7789 8.324 94.8749 8.76134 95.0669 9.124C95.2696 9.476 95.5469 9.748 95.8989 9.94C96.2616 10.1213 96.6829 10.212 97.1629 10.212C97.7816 10.212 98.3042 10.0573 98.7309 9.748C99.1682 9.43867 99.4402 9.028 99.5469 8.516H102.795Z" fill="black"/>
<path d="M90.6074 8.516C90.5221 9.33734 90.2234 10.0573 89.7114 10.676C89.1994 11.2947 88.5327 11.7747 87.7114 12.116C86.9007 12.4573 85.9887 12.628 84.9754 12.628C83.8554 12.628 82.8687 12.4253 82.0154 12.02C81.1621 11.6147 80.4954 11.0493 80.0154 10.324C79.5354 9.59867 79.2954 8.76134 79.2954 7.812C79.2954 6.852 79.5354 6.00934 80.0154 5.284C80.4954 4.55867 81.1621 3.99334 82.0154 3.588C82.8687 3.172 83.8554 2.964 84.9754 2.964C85.9887 2.964 86.9007 3.14 87.7114 3.492C88.5327 3.83334 89.1994 4.31334 89.7114 4.932C90.2234 5.54 90.5221 6.26 90.6074 7.092H87.3594C87.2421 6.548 86.9701 6.132 86.5434 5.844C86.1167 5.54534 85.5941 5.396 84.9754 5.396C84.4954 5.396 84.0741 5.492 83.7114 5.684C83.3594 5.86534 83.0821 6.13734 82.8794 6.5C82.6874 6.852 82.5914 7.28934 82.5914 7.812C82.5914 8.324 82.6874 8.76134 82.8794 9.124C83.0821 9.476 83.3594 9.748 83.7114 9.94C84.0741 10.1213 84.4954 10.212 84.9754 10.212C85.5941 10.212 86.1167 10.0573 86.5434 9.748C86.9807 9.43867 87.2527 9.028 87.3594 8.516H90.6074Z" fill="black"/>
<path d="M74.8265 12.372L74.4105 9.076L74.8425 7.812L74.4105 6.548L74.8265 3.236H78.2185L77.6425 7.796L78.2185 12.372H74.8265ZM75.5945 7.812C75.4452 8.772 75.1465 9.61467 74.6985 10.34C74.2612 11.0653 73.7012 11.6307 73.0185 12.036C72.3465 12.4307 71.5785 12.628 70.7145 12.628C69.8185 12.628 69.0292 12.4307 68.3465 12.036C67.6745 11.6307 67.1465 11.0653 66.7625 10.34C66.3785 9.604 66.1865 8.76134 66.1865 7.812C66.1865 6.84134 66.3785 5.99334 66.7625 5.268C67.1465 4.54267 67.6745 3.97734 68.3465 3.572C69.0292 3.16667 69.8185 2.964 70.7145 2.964C71.5785 2.964 72.3465 3.16667 73.0185 3.572C73.7012 3.96667 74.2665 4.52667 74.7145 5.252C75.1625 5.96667 75.4559 6.82 75.5945 7.812ZM69.4985 7.812C69.4985 8.26 69.5892 8.66 69.7705 9.012C69.9625 9.364 70.2239 9.64134 70.5545 9.844C70.8852 10.036 71.2639 10.132 71.6905 10.132C72.1385 10.132 72.5599 10.036 72.9545 9.844C73.3492 9.64134 73.6959 9.364 73.9945 9.012C74.2932 8.66 74.5172 8.26 74.6665 7.812C74.5172 7.35334 74.2932 6.948 73.9945 6.596C73.6959 6.244 73.3492 5.96667 72.9545 5.764C72.5599 5.56134 72.1385 5.46 71.6905 5.46C71.2639 5.46 70.8852 5.56134 70.5545 5.764C70.2239 5.96667 69.9625 6.244 69.7705 6.596C69.5892 6.948 69.4985 7.35334 69.4985 7.812Z" fill="black"/>
<path d="M61.2252 9.396C61.2252 10.1 61.0119 10.692 60.5852 11.172C60.1585 11.652 59.5505 12.0147 58.7612 12.26C57.9719 12.5053 57.0225 12.628 55.9132 12.628C54.7719 12.628 53.7692 12.4893 52.9052 12.212C52.0519 11.9347 51.3852 11.5453 50.9052 11.044C50.4252 10.5427 50.1692 9.96134 50.1372 9.3H53.4492C53.5239 9.54534 53.6679 9.75867 53.8812 9.94C54.1052 10.1107 54.3985 10.244 54.7612 10.34C55.1239 10.4253 55.5559 10.468 56.0572 10.468C56.7079 10.468 57.1985 10.404 57.5292 10.276C57.8705 10.148 58.0412 9.956 58.0412 9.7C58.0412 9.49734 57.9132 9.348 57.6572 9.252C57.4012 9.14534 56.9639 9.06534 56.3452 9.012L54.7292 8.884C53.6519 8.80934 52.7932 8.64934 52.1532 8.404C51.5239 8.148 51.0705 7.82267 50.7932 7.428C50.5159 7.02267 50.3772 6.564 50.3772 6.052C50.3772 5.35867 50.5905 4.788 51.0172 4.34C51.4545 3.88134 52.0572 3.54 52.8252 3.316C53.6039 3.08134 54.5105 2.964 55.5452 2.964C56.5692 2.964 57.4812 3.09734 58.2812 3.364C59.0812 3.63067 59.7212 4.004 60.2012 4.484C60.6812 4.95334 60.9585 5.508 61.0332 6.148H57.7212C57.6679 5.94534 57.5505 5.764 57.3692 5.604C57.1879 5.43334 56.9372 5.29467 56.6172 5.188C56.2972 5.08134 55.8865 5.028 55.3852 5.028C54.7985 5.028 54.3505 5.092 54.0412 5.22C53.7425 5.348 53.5932 5.52934 53.5932 5.764C53.5932 5.94534 53.6839 6.08934 53.8652 6.196C54.0572 6.30267 54.4092 6.37734 54.9212 6.42L57.0492 6.58C58.1052 6.644 58.9372 6.79867 59.5452 7.044C60.1532 7.27867 60.5852 7.59334 60.8412 7.988C61.0972 8.38267 61.2252 8.852 61.2252 9.396Z" fill="black"/>
<path d="M46.1885 0.372002H49.4365L48.7965 5.732H46.8285L46.1885 0.372002Z" fill="black"/>
<path d="M37.2324 3.236H40.5604L41.1044 6.5V12.372H37.8404V6.308L37.2324 3.236ZM45.3924 3.092V5.876C45.0724 5.812 44.7684 5.76934 44.4804 5.748C44.2031 5.716 43.9471 5.7 43.7124 5.7C43.2431 5.7 42.8111 5.796 42.4164 5.988C42.0218 6.16934 41.7018 6.47334 41.4564 6.9C41.2218 7.32667 41.1044 7.89734 41.1044 8.612L40.4804 7.844C40.5658 7.18267 40.6938 6.564 40.8644 5.988C41.0351 5.40134 41.2644 4.884 41.5524 4.436C41.8511 3.97734 42.2191 3.62 42.6564 3.364C43.0938 3.09734 43.6271 2.964 44.2564 2.964C44.4378 2.964 44.6244 2.97467 44.8164 2.996C45.0084 3.01734 45.2004 3.04934 45.3924 3.092Z" fill="black"/>
<path d="M31.3214 12.628C30.2121 12.628 29.2201 12.4253 28.3454 12.02C27.4814 11.6147 26.7987 11.0493 26.2974 10.324C25.7961 9.588 25.5454 8.73467 25.5454 7.764C25.5454 6.81467 25.7854 5.98267 26.2654 5.268C26.7454 4.54267 27.4014 3.97734 28.2334 3.572C29.0761 3.16667 30.0254 2.964 31.0814 2.964C32.1801 2.964 33.1134 3.204 33.8814 3.684C34.6601 4.15334 35.2574 4.82 35.6734 5.684C36.1001 6.548 36.3134 7.56667 36.3134 8.74H28.1854V6.772H34.4734L33.4014 7.46C33.3587 6.99067 33.2414 6.596 33.0494 6.276C32.8574 5.94534 32.6014 5.69467 32.2814 5.524C31.9721 5.35334 31.5987 5.268 31.1614 5.268C30.6814 5.268 30.2707 5.364 29.9294 5.556C29.5881 5.748 29.3214 6.01467 29.1294 6.356C28.9374 6.68667 28.8414 7.076 28.8414 7.524C28.8414 8.1 28.9694 8.59067 29.2254 8.996C29.4921 9.39067 29.8761 9.69467 30.3774 9.908C30.8894 10.1213 31.5134 10.228 32.2494 10.228C32.9214 10.228 33.5881 10.1427 34.2494 9.972C34.9214 9.79067 35.5294 9.54 36.0734 9.22V11.3C35.4441 11.7267 34.7241 12.0573 33.9134 12.292C33.1134 12.516 32.2494 12.628 31.3214 12.628Z" fill="black"/>
<path d="M24.5846 9.396C24.5846 10.1 24.3712 10.692 23.9446 11.172C23.5179 11.652 22.9099 12.0147 22.1206 12.26C21.3312 12.5053 20.3819 12.628 19.2726 12.628C18.1312 12.628 17.1286 12.4893 16.2646 12.212C15.4112 11.9347 14.7446 11.5453 14.2646 11.044C13.7846 10.5427 13.5286 9.96134 13.4966 9.3H16.8086C16.8832 9.54534 17.0273 9.75867 17.2406 9.94C17.4646 10.1107 17.7579 10.244 18.1206 10.34C18.4832 10.4253 18.9152 10.468 19.4166 10.468C20.0672 10.468 20.5579 10.404 20.8886 10.276C21.2299 10.148 21.4006 9.956 21.4006 9.7C21.4006 9.49734 21.2726 9.348 21.0166 9.252C20.7606 9.14534 20.3232 9.06534 19.7046 9.012L18.0886 8.884C17.0112 8.80934 16.1526 8.64934 15.5126 8.404C14.8832 8.148 14.4299 7.82267 14.1526 7.428C13.8752 7.02267 13.7366 6.564 13.7366 6.052C13.7366 5.35867 13.9499 4.788 14.3766 4.34C14.8139 3.88134 15.4166 3.54 16.1846 3.316C16.9632 3.08134 17.8699 2.964 18.9046 2.964C19.9286 2.964 20.8406 3.09734 21.6406 3.364C22.4406 3.63067 23.0806 4.004 23.5606 4.484C24.0406 4.95334 24.3179 5.508 24.3926 6.148H21.0806C21.0273 5.94534 20.9099 5.764 20.7286 5.604C20.5472 5.43334 20.2966 5.29467 19.9766 5.188C19.6566 5.08134 19.2459 5.028 18.7446 5.028C18.1579 5.028 17.7099 5.092 17.4006 5.22C17.1019 5.348 16.9526 5.52934 16.9526 5.764C16.9526 5.94534 17.0432 6.08934 17.2246 6.196C17.4166 6.30267 17.7686 6.37734 18.2806 6.42L20.4086 6.58C21.4646 6.644 22.2966 6.79867 22.9046 7.044C23.5126 7.27867 23.9446 7.59334 24.2006 7.988C24.4566 8.38267 24.5846 8.852 24.5846 9.396Z" fill="black"/>
<path d="M3.47802 7.012C3.47802 7.556 3.57935 8.03067 3.78202 8.436C3.99535 8.83067 4.30468 9.13467 4.71002 9.348C5.12602 9.56134 5.63268 9.668 6.23002 9.668C6.83802 9.668 7.34468 9.56134 7.75002 9.348C8.15535 9.13467 8.45935 8.83067 8.66202 8.436C8.86468 8.03067 8.96602 7.556 8.96602 7.012V0.372002H12.294V7.172C12.294 8.27067 12.038 9.23067 11.526 10.052C11.0247 10.8627 10.3207 11.4973 9.41402 11.956C8.50735 12.404 7.44602 12.628 6.23002 12.628C5.02468 12.628 3.96335 12.404 3.04602 11.956C2.13935 11.4973 1.43002 10.8627 0.918016 10.052C0.416682 9.23067 0.166016 8.27067 0.166016 7.172V0.372002H3.47802V7.012Z" fill="black"/>
</svg>
