<svg width="36" height="36" viewBox="0 0 36 36" fill="none" xmlns="http://www.w3.org/2000/svg">
<path fill-rule="evenodd" clip-rule="evenodd" d="M6 13.5C6.62132 13.5 7.125 14.0037 7.125 14.625V16.125C7.125 22.1311 11.9939 27 18 27C24.0061 27 28.875 22.1311 28.875 16.125V14.625C28.875 14.0037 29.3787 13.5 30 13.5C30.6213 13.5 31.125 14.0037 31.125 14.625V16.125C31.125 22.9948 25.8471 28.6318 19.125 29.2025V32.625C19.125 33.2463 18.6213 33.75 18 33.75C17.3787 33.75 16.875 33.2463 16.875 32.625V29.2025C10.1529 28.6318 4.875 22.9948 4.875 16.125V14.625C4.875 14.0037 5.37868 13.5 6 13.5Z" fill="black"/>
<path opacity="0.5" d="M18 3C13.2365 3 9.375 6.86154 9.375 11.625V16.125C9.375 20.8885 13.2365 24.75 18 24.75C22.3822 24.75 26.001 21.4819 26.5523 17.25L19.5 17.25C18.8787 17.25 18.375 16.7463 18.375 16.125C18.375 15.5037 18.8787 15 19.5 15L26.625 15V12.75H19.5C18.8787 12.75 18.375 12.2463 18.375 11.625C18.375 11.0037 18.8787 10.5 19.5 10.5H26.5523C26.001 6.2681 22.3822 3 18 3Z" fill="black"/>
<path d="M18.375 16.125C18.375 16.7463 18.8787 17.25 19.5 17.25L26.5523 17.25L26.625 15L19.5 15C18.8787 15 18.375 15.5037 18.375 16.125Z" fill="black"/>
<path d="M18.375 11.625C18.375 12.2463 18.8787 12.75 19.5 12.75H26.625L26.5523 10.5H19.5C18.8787 10.5 18.375 11.0037 18.375 11.625Z" fill="black"/>
</svg>
